<svg xmlns="http://www.w3.org/2000/svg" width="2120" height="600.0" viewBox="0 0 2120 600.0">
<rect x="0" y="0" width="2120" height="600.0" fill="#F1ECE2"/>
<g id="edges"><path d="M 1905.2 291.9 Q 1838.1 389.8 1620.8 358.4" fill="none" stroke="#B9AFA0" stroke-opacity="0.14" stroke-width="0.7" stroke-dasharray="1,4" stroke-linecap="round"/><path d="M 1697.5 288.5 Q 1896.3 236.8 1987.9 319.3" fill="none" stroke="#B9AFA0" stroke-opacity="0.14" stroke-width="0.7" stroke-dasharray="1,4" stroke-linecap="round"/><path d="M 1974.9 328.9 Q 1972.8 336.0 1968.2 338.0" fill="none" stroke="#3F6B72" stroke-opacity="0.3" stroke-width="0.9" stroke-dasharray="3,4" stroke-linecap="round"/><path d="M 1968.5 275.6 Q 1981.2 290.4 1980.4 305.4" fill="none" stroke="#3F6B72" stroke-opacity="0.3" stroke-width="0.9" stroke-dasharray="3,4" stroke-linecap="round"/><path d="M 1591.4 336.9 Q 1582.6 341.6 1573.8 340.2" fill="none" stroke="#B9AFA0" stroke-opacity="0.14" stroke-width="0.7" stroke-dasharray="1,4" stroke-linecap="round"/><path d="M 1685.3 267.9 Q 1820.3 240.2 1953.7 289.9" fill="none" stroke="#B9AFA0" stroke-opacity="0.14" stroke-width="0.7" stroke-dasharray="1,4" stroke-linecap="round"/><path d="M 1685.3 267.9 Q 1808.5 246.3 1953.7 289.9" fill="none" stroke="#B9AFA0" stroke-opacity="0.14" stroke-width="0.7" stroke-dasharray="1,4" stroke-linecap="round"/><path d="M 1984.9 310.7 Q 1970.3 305.1 1953.7 289.9" fill="none" stroke="#3F6B72" stroke-opacity="0.3" stroke-width="0.9" stroke-dasharray="3,4" stroke-linecap="round"/><path d="M 1986.7 315.1 Q 1985.7 313.6 1984.9 310.7" fill="none" stroke="#3F6B72" stroke-opacity="0.3" stroke-width="0.9" stroke-dasharray="3,4" stroke-linecap="round"/><path d="M 1985.1 327.4 Q 1985.1 323.4 1986.7 315.1" fill="none" stroke="#3F6B72" stroke-opacity="0.3" stroke-width="0.9" stroke-dasharray="3,4" stroke-linecap="round"/><path d="M 1956.1 323.2 Q 1976.0 325.7 1985.1 327.4" fill="none" stroke="#3F6B72" stroke-opacity="0.3" stroke-width="0.9" stroke-dasharray="3,4" stroke-linecap="round"/><path d="M 1956.1 323.2 Q 1784.6 319.9 1688.4 323.5" fill="none" stroke="#B9AFA0" stroke-opacity="0.14" stroke-width="0.7" stroke-dasharray="1,4" stroke-linecap="round"/><path d="M 1656.4 276.1 Q 1834.0 316.1 1956.1 323.2" fill="none" stroke="#B9AFA0" stroke-opacity="0.14" stroke-width="0.7" stroke-dasharray="1,4" stroke-linecap="round"/><path d="M 1667.7 324.3 Q 1820.7 327.2 1939.3 297.6" fill="none" stroke="#B9AFA0" stroke-opacity="0.14" stroke-width="0.7" stroke-dasharray="1,4" stroke-linecap="round"/><path d="M 1627.9 298.0 Q 1646.0 315.2 1667.7 324.3" fill="none" stroke="#B9AFA0" stroke-opacity="0.14" stroke-width="0.7" stroke-dasharray="1,4" stroke-linecap="round"/><path d="M 1997.1 309.1 Q 1971.1 296.8 1939.3 297.6" fill="none" stroke="#3F6B72" stroke-opacity="0.3" stroke-width="0.9" stroke-dasharray="3,4" stroke-linecap="round"/><path d="M 1973.3 302.0 Q 1988.4 303.0 2005.5 293.7" fill="none" stroke="#3F6B72" stroke-opacity="0.3" stroke-width="0.9" stroke-dasharray="3,4" stroke-linecap="round"/><path d="M 1674.5 300.8 Q 1789.7 362.4 1980.8 325.4" fill="none" stroke="#B9AFA0" stroke-opacity="0.14" stroke-width="0.7" stroke-dasharray="1,4" stroke-linecap="round"/><path d="M 1674.5 300.8 Q 1767.3 351.5 1939.3 297.6" fill="none" stroke="#B9AFA0" stroke-opacity="0.14" stroke-width="0.7" stroke-dasharray="1,4" stroke-linecap="round"/><path d="M 1651.1 300.0 Q 1658.1 305.4 1674.5 300.8" fill="none" stroke="#B9AFA0" stroke-opacity="0.14" stroke-width="0.7" stroke-dasharray="1,4" stroke-linecap="round"/><path d="M 1651.1 300.0 Q 1666.4 306.3 1674.5 300.8" fill="none" stroke="#B9AFA0" stroke-opacity="0.14" stroke-width="0.7" stroke-dasharray="1,4" stroke-linecap="round"/><path d="M 1994.2 351.8 Q 1793.9 268.9 1675.7 358.8" fill="none" stroke="#B9AFA0" stroke-opacity="0.14" stroke-width="0.7" stroke-dasharray="1,4" stroke-linecap="round"/><path d="M 1994.2 351.8 Q 1810.9 435.4 1675.7 358.8" fill="none" stroke="#B9AFA0" stroke-opacity="0.14" stroke-width="0.7" stroke-dasharray="1,4" stroke-linecap="round"/><path d="M 1671.7 242.6 Q 1626.8 248.9 1596.6 223.1" fill="none" stroke="#B9AFA0" stroke-opacity="0.14" stroke-width="0.7" stroke-dasharray="1,4" stroke-linecap="round"/><path d="M 1956.5 313.5 Q 1800.8 334.5 1671.7 242.6" fill="none" stroke="#B9AFA0" stroke-opacity="0.14" stroke-width="0.7" stroke-dasharray="1,4" stroke-linecap="round"/><path d="M 1956.5 313.5 Q 1814.6 330.0 1671.7 242.6" fill="none" stroke="#B9AFA0" stroke-opacity="0.14" stroke-width="0.7" stroke-dasharray="1,4" stroke-linecap="round"/><path d="M 1707.1 307.8 Q 1816.4 266.7 1973.3 302.0" fill="none" stroke="#B9AFA0" stroke-opacity="0.14" stroke-width="0.7" stroke-dasharray="1,4" stroke-linecap="round"/><path d="M 1707.1 307.8 Q 1796.8 286.0 1942.6 324.7" fill="none" stroke="#B9AFA0" stroke-opacity="0.14" stroke-width="0.7" stroke-dasharray="1,4" stroke-linecap="round"/><path d="M 1583.6 262.1 Q 1592.4 266.0 1605.0 279.9" fill="none" stroke="#B9AFA0" stroke-opacity="0.14" stroke-width="0.7" stroke-dasharray="1,4" stroke-linecap="round"/><path d="M 1583.6 262.1 Q 1599.5 273.0 1605.0 279.9" fill="none" stroke="#B9AFA0" stroke-opacity="0.14" stroke-width="0.7" stroke-dasharray="1,4" stroke-linecap="round"/><path d="M 1898.6 330.8 Q 1118.6 321.6 698.5 240.8" fill="none" stroke="#8B3A3A" stroke-opacity="0.2" stroke-width="1.0" stroke-dasharray="1,6" stroke-linecap="round"/><path d="M 1898.6 330.8 Q 1171.1 294.1 698.5 240.8" fill="none" stroke="#8B3A3A" stroke-opacity="0.2" stroke-width="1.0" stroke-dasharray="1,6" stroke-linecap="round"/><path d="M 1898.6 330.8 Q 1223.5 266.5 698.5 240.8" fill="none" stroke="#8B3A3A" stroke-opacity="0.2" stroke-width="1.0" stroke-dasharray="1,6" stroke-linecap="round"/><path d="M 1952.6 334.8 Q 1947.4 349.3 1944.7 363.1" fill="none" stroke="#3F6B72" stroke-opacity="0.3" stroke-width="0.9" stroke-dasharray="3,4" stroke-linecap="round"/><path d="M 580.3 220.0 Q 1205.8 357.0 1898.6 330.8" fill="none" stroke="#8B3A3A" stroke-opacity="0.2" stroke-width="1.0" stroke-dasharray="1,6" stroke-linecap="round"/><path d="M 1930.8 310.5 Q 1347.4 149.8 580.3 220.0" fill="none" stroke="#8B3A3A" stroke-opacity="0.2" stroke-width="1.0" stroke-dasharray="1,6" stroke-linecap="round"/><path d="M 564.1 227.6 Q 1096.1 418.7 1930.8 310.5" fill="none" stroke="#8B3A3A" stroke-opacity="0.2" stroke-width="1.0" stroke-dasharray="1,6" stroke-linecap="round"/><path d="M 671.4 228.3 Q 1106.2 436.2 1930.8 310.5" fill="none" stroke="#8B3A3A" stroke-opacity="0.2" stroke-width="1.0" stroke-dasharray="1,6" stroke-linecap="round"/><path d="M 603.2 224.2 Q 1013.7 484.5 1969.1 323.0" fill="none" stroke="#8B3A3A" stroke-opacity="0.2" stroke-width="1.0" stroke-dasharray="1,6" stroke-linecap="round"/><path d="M 1971.0 311.0 Q 1070.1 -12.7 603.2 224.2" fill="none" stroke="#8B3A3A" stroke-opacity="0.2" stroke-width="1.0" stroke-dasharray="1,6" stroke-linecap="round"/><path d="M 1963.8 306.4 Q 1125.9 -44.9 603.2 224.2" fill="none" stroke="#8B3A3A" stroke-opacity="0.2" stroke-width="1.0" stroke-dasharray="1,6" stroke-linecap="round"/><path d="M 1963.8 306.4 Q 1966.9 310.9 1971.0 311.0" fill="none" stroke="#3F6B72" stroke-opacity="0.3" stroke-width="0.9" stroke-dasharray="3,4" stroke-linecap="round"/><path d="M 1502.2 251.4 Q 1737.4 417.6 1969.1 323.0" fill="none" stroke="#B9AFA0" stroke-opacity="0.14" stroke-width="0.7" stroke-dasharray="1,4" stroke-linecap="round"/><path d="M 1502.2 251.4 Q 1042.4 463.7 603.2 224.2" fill="none" stroke="#B9AFA0" stroke-opacity="0.14" stroke-width="0.7" stroke-dasharray="1,4" stroke-linecap="round"/><path d="M 566.6 211.7 Q 1233.6 -59.4 1963.8 306.4" fill="none" stroke="#8B3A3A" stroke-opacity="0.2" stroke-width="1.0" stroke-dasharray="1,6" stroke-linecap="round"/><path d="M 1533.4 281.3 Q 1514.3 274.9 1502.2 251.4" fill="none" stroke="#B9AFA0" stroke-opacity="0.14" stroke-width="0.7" stroke-dasharray="1,4" stroke-linecap="round"/><path d="M 548.5 232.5 Q 562.6 215.6 596.1 209.6" fill="none" stroke="#A8703C" stroke-opacity="0.3" stroke-width="0.9" stroke-dasharray="3,4" stroke-linecap="round"/><path d="M 548.5 232.5 Q 561.2 217.8 596.1 209.6" fill="none" stroke="#A8703C" stroke-opacity="0.3" stroke-width="0.9" stroke-dasharray="3,4" stroke-linecap="round"/><path d="M 617.1 215.0 Q 1574.7 124.8 1976.4 321.8" fill="none" stroke="#8B3A3A" stroke-opacity="0.2" stroke-width="1.0" stroke-dasharray="1,6" stroke-linecap="round"/><path d="M 617.1 215.0 Q 573.9 232.9 548.5 232.5" fill="none" stroke="#A8703C" stroke-opacity="0.3" stroke-width="0.9" stroke-dasharray="3,4" stroke-linecap="round"/><path d="M 617.1 215.0 Q 586.0 216.5 566.6 211.7" fill="none" stroke="#A8703C" stroke-opacity="0.3" stroke-width="0.9" stroke-dasharray="3,4" stroke-linecap="round"/><path d="M 1964.8 316.8 Q 1270.2 319.3 752.1 230.4" fill="none" stroke="#8B3A3A" stroke-opacity="0.2" stroke-width="1.0" stroke-dasharray="1,6" stroke-linecap="round"/><path d="M 1964.8 316.8 Q 1323.1 291.2 752.1 230.4" fill="none" stroke="#8B3A3A" stroke-opacity="0.2" stroke-width="1.0" stroke-dasharray="1,6" stroke-linecap="round"/><path d="M 1495.3 288.1 Q 1134.5 252.9 752.1 230.4" fill="none" stroke="#B9AFA0" stroke-opacity="0.14" stroke-width="0.7" stroke-dasharray="1,4" stroke-linecap="round"/><path d="M 637.3 220.3 Q 1223.7 310.6 1964.8 316.8" fill="none" stroke="#8B3A3A" stroke-opacity="0.2" stroke-width="1.0" stroke-dasharray="1,6" stroke-linecap="round"/><path d="M 637.3 220.3 Q 978.5 300.6 1495.3 288.1" fill="none" stroke="#B9AFA0" stroke-opacity="0.14" stroke-width="0.7" stroke-dasharray="1,4" stroke-linecap="round"/><path d="M 574.9 238.0 Q 1074.3 389.9 1978.1 317.1" fill="none" stroke="#8B3A3A" stroke-opacity="0.2" stroke-width="1.0" stroke-dasharray="1,6" stroke-linecap="round"/><path d="M 122.3 195.7 Q 261.9 260.8 574.9 238.0" fill="none" stroke="#A8703C" stroke-opacity="0.3" stroke-width="0.9" stroke-dasharray="3,4" stroke-linecap="round"/><path d="M 1973.4 317.4 Q 1037.3 67.7 574.9 238.0" fill="none" stroke="#8B3A3A" stroke-opacity="0.2" stroke-width="1.0" stroke-dasharray="1,6" stroke-linecap="round"/><path d="M 171.7 198.5 Q 1297.0 573.6 1973.4 317.4" fill="none" stroke="#8B3A3A" stroke-opacity="0.2" stroke-width="1.0" stroke-dasharray="1,6" stroke-linecap="round"/><path d="M 1945.6 312.4 Q 914.3 -96.4 171.7 198.5" fill="none" stroke="#8B3A3A" stroke-opacity="0.2" stroke-width="1.0" stroke-dasharray="1,6" stroke-linecap="round"/><path d="M 1945.6 312.4 Q 1243.6 -24.2 637.3 220.3" fill="none" stroke="#8B3A3A" stroke-opacity="0.2" stroke-width="1.0" stroke-dasharray="1,6" stroke-linecap="round"/><path d="M 617.3 235.6 Q 1276.3 599.6 1945.6 312.4" fill="none" stroke="#8B3A3A" stroke-opacity="0.2" stroke-width="1.0" stroke-dasharray="1,6" stroke-linecap="round"/><path d="M 136.5 194.7 Q 949.0 724.2 1926.5 290.9" fill="none" stroke="#8B3A3A" stroke-opacity="0.2" stroke-width="1.0" stroke-dasharray="1,6" stroke-linecap="round"/><path d="M 146.5 197.8 Q 956.7 -216.9 1977.2 312.4" fill="none" stroke="#8B3A3A" stroke-opacity="0.2" stroke-width="1.0" stroke-dasharray="1,6" stroke-linecap="round"/></g>
<g id="nodes"><g><clipPath id="cliproot"><path d="M 1609.6 347.2 L 1632.0 347.2 L 1632.0 369.5 L 1609.6 369.5 Z"/></clipPath><path d="M 1609.6 347.2 L 1632.0 347.2 L 1632.0 369.5 L 1609.6 369.5 Z" fill="#9C948A" fill-opacity="0.2" stroke="#9C948A" stroke-opacity="1.0" stroke-width="2.01"/><g clip-path="url(#cliproot)"><line x1="1604.2" y1="374.9" x2="1633.0" y2="346.1" stroke="#9C948A" stroke-width="0.6" stroke-opacity="0.55"/><line x1="1608.6" y1="370.6" x2="1637.4" y2="341.8" stroke="#9C948A" stroke-width="0.6" stroke-opacity="0.55"/></g></g><g><clipPath id="clip1640961943"><path d="M 1867.8 297.6 L 1876.0 305.8 Q 1878.7 308.5 1876.0 311.2 L 1867.8 319.4 Q 1865.1 322.0 1862.5 319.4 L 1854.3 311.2 Q 1851.6 308.5 1854.3 305.8 L 1862.5 297.6 Q 1865.1 294.9 1867.8 297.6 Z"/></clipPath><path d="M 1867.8 297.6 L 1876.0 305.8 Q 1878.7 308.5 1876.0 311.2 L 1867.8 319.4 Q 1865.1 322.0 1862.5 319.4 L 1854.3 311.2 Q 1851.6 308.5 1854.3 305.8 L 1862.5 297.6 Q 1865.1 294.9 1867.8 297.6 Z" fill="#3F6B72" fill-opacity="0.36" stroke="#3F6B72" stroke-opacity="1.0" stroke-width="1.35"/><g clip-path="url(#clip1640961943)"><line x1="1852.7" y1="321.0" x2="1874.4" y2="299.3" stroke="#3F6B72" stroke-width="0.6" stroke-opacity="0.55"/><line x1="1855.9" y1="317.7" x2="1877.6" y2="296.0" stroke="#3F6B72" stroke-width="0.6" stroke-opacity="0.55"/></g></g><g><clipPath id="clip1627553270"><path d="M 1907.3 283.6 L 1913.6 289.9 Q 1915.6 291.9 1913.6 294.0 L 1907.3 300.3 Q 1905.2 302.3 1903.2 300.3 L 1896.9 294.0 Q 1894.8 291.9 1896.9 289.9 L 1903.2 283.6 Q 1905.2 281.5 1907.3 283.6 Z"/></clipPath><path d="M 1907.3 283.6 L 1913.6 289.9 Q 1915.6 291.9 1913.6 294.0 L 1907.3 300.3 Q 1905.2 302.3 1903.2 300.3 L 1896.9 294.0 Q 1894.8 291.9 1896.9 289.9 L 1903.2 283.6 Q 1905.2 281.5 1907.3 283.6 Z" fill="#3F6B72" fill-opacity="0.36" stroke="#3F6B72" stroke-opacity="1.0" stroke-width="1.21"/><g clip-path="url(#clip1627553270)"></g></g><g><clipPath id="clip2379221389"><path d="M 1488.8 281.6 L 1501.7 281.6 L 1501.7 294.5 L 1488.8 294.5 Z"/></clipPath><path d="M 1488.8 281.6 L 1501.7 281.6 L 1501.7 294.5 L 1488.8 294.5 Z" fill="#9C948A" fill-opacity="0.2" stroke="#9C948A" stroke-opacity="1.0" stroke-width="1.67"/><g clip-path="url(#clip2379221389)"></g></g><g><clipPath id="clip2391697980"><path d="M 1535.6 355.7 L 1548.1 355.7 L 1548.1 368.2 L 1535.6 368.2 Z"/></clipPath><path d="M 1535.6 355.7 L 1548.1 355.7 L 1548.1 368.2 L 1535.6 368.2 Z" fill="#9C948A" fill-opacity="0.2" stroke="#9C948A" stroke-opacity="1.0" stroke-width="1.01"/><g clip-path="url(#clip2391697980)"><line x1="1532.5" y1="371.3" x2="1548.7" y2="355.1" stroke="#9C948A" stroke-width="0.6" stroke-opacity="0.55"/><line x1="1534.9" y1="368.9" x2="1551.1" y2="352.7" stroke="#9C948A" stroke-width="0.6" stroke-opacity="0.55"/></g></g><g><clipPath id="clip2075620726"><path d="M 1915.2 304.4 L 1921.1 310.3 Q 1923.0 312.2 1921.1 314.1 L 1915.2 320.0 Q 1913.3 322.0 1911.3 320.0 L 1905.4 314.1 Q 1903.5 312.2 1905.4 310.3 L 1911.3 304.4 Q 1913.3 302.4 1915.2 304.4 Z"/></clipPath><path d="M 1915.2 304.4 L 1921.1 310.3 Q 1923.0 312.2 1921.1 314.1 L 1915.2 320.0 Q 1913.3 322.0 1911.3 320.0 L 1905.4 314.1 Q 1903.5 312.2 1905.4 310.3 L 1911.3 304.4 Q 1913.3 302.4 1915.2 304.4 Z" fill="#3F6B72" fill-opacity="0.36" stroke="#3F6B72" stroke-opacity="1.0" stroke-width="1.44"/><g clip-path="url(#clip2075620726)"></g></g><g><clipPath id="clip2075501616"><path d="M 1921.7 335.5 L 1927.5 341.3 Q 1929.4 343.2 1927.5 345.1 L 1921.7 350.9 Q 1919.8 352.8 1917.9 350.9 L 1912.1 345.1 Q 1910.2 343.2 1912.1 341.3 L 1917.9 335.5 Q 1919.8 333.6 1921.7 335.5 Z"/></clipPath><path d="M 1921.7 335.5 L 1927.5 341.3 Q 1929.4 343.2 1927.5 345.1 L 1921.7 350.9 Q 1919.8 352.8 1917.9 350.9 L 1912.1 345.1 Q 1910.2 343.2 1912.1 341.3 L 1917.9 335.5 Q 1919.8 333.6 1921.7 335.5 Z" fill="#3F6B72" fill-opacity="0.36" stroke="#3F6B72" stroke-opacity="1.0" stroke-width="2.23"/><g clip-path="url(#clip2075501616)"></g></g><g><clipPath id="clip2083405465"><path d="M 1941.1 290.4 L 1946.5 295.8 Q 1948.3 297.6 1946.5 299.4 L 1941.1 304.8 Q 1939.3 306.6 1937.5 304.8 L 1932.0 299.4 Q 1930.2 297.6 1932.0 295.8 L 1937.5 290.4 Q 1939.3 288.6 1941.1 290.4 Z"/></clipPath><path d="M 1941.1 290.4 L 1946.5 295.8 Q 1948.3 297.6 1946.5 299.4 L 1941.1 304.8 Q 1939.3 306.6 1937.5 304.8 L 1932.0 299.4 Q 1930.2 297.6 1932.0 295.8 L 1937.5 290.4 Q 1939.3 288.6 1941.1 290.4 Z" fill="#3F6B72" fill-opacity="0.36" stroke="#3F6B72" stroke-opacity="1.0" stroke-width="1.52"/><g clip-path="url(#clip2083405465)"></g></g><g><clipPath id="clip2361302387"><path d="M 1939.8 334.2 L 1945.3 339.7 Q 1947.0 341.5 1945.3 343.3 L 1939.8 348.7 Q 1938.0 350.5 1936.2 348.7 L 1930.8 343.3 Q 1929.0 341.5 1930.8 339.7 L 1936.2 334.2 Q 1938.0 332.5 1939.8 334.2 Z"/></clipPath><path d="M 1939.8 334.2 L 1945.3 339.7 Q 1947.0 341.5 1945.3 343.3 L 1939.8 348.7 Q 1938.0 350.5 1936.2 348.7 L 1930.8 343.3 Q 1929.0 341.5 1930.8 339.7 L 1936.2 334.2 Q 1938.0 332.5 1939.8 334.2 Z" fill="#3F6B72" fill-opacity="0.36" stroke="#3F6B72" stroke-opacity="1.0" stroke-width="0.98"/><g clip-path="url(#clip2361302387)"></g></g><g><clipPath id="clip2374867640"><path d="M 1929.4 318.8 L 1934.9 324.3 Q 1936.7 326.0 1934.9 327.8 L 1929.4 333.3 Q 1927.6 335.1 1925.8 333.3 L 1920.4 327.8 Q 1918.6 326.0 1920.4 324.3 L 1925.8 318.8 Q 1927.6 317.0 1929.4 318.8 Z"/></clipPath><path d="M 1929.4 318.8 L 1934.9 324.3 Q 1936.7 326.0 1934.9 327.8 L 1929.4 333.3 Q 1927.6 335.1 1925.8 333.3 L 1920.4 327.8 Q 1918.6 326.0 1920.4 324.3 L 1925.8 318.8 Q 1927.6 317.0 1929.4 318.8 Z" fill="#3F6B72" fill-opacity="0.36" stroke="#3F6B72" stroke-opacity="1.0" stroke-width="1.30"/><g clip-path="url(#clip2374867640)"></g></g><g><clipPath id="clip2377565618"><path d="M 1559.1 229.4 L 1570.3 229.4 L 1570.3 240.6 L 1559.1 240.6 Z"/></clipPath><path d="M 1559.1 229.4 L 1570.3 229.4 L 1570.3 240.6 L 1559.1 240.6 Z" fill="#9C948A" fill-opacity="0.2" stroke="#9C948A" stroke-opacity="1.0" stroke-width="0.92"/><g clip-path="url(#clip2377565618)"></g></g><g><clipPath id="clip2363560261"><path d="M 1900.3 323.7 L 1905.7 329.0 Q 1907.4 330.8 1905.7 332.5 L 1900.3 337.9 Q 1898.6 339.6 1896.9 337.9 L 1891.5 332.5 Q 1889.8 330.8 1891.5 329.0 L 1896.9 323.7 Q 1898.6 322.0 1900.3 323.7 Z"/></clipPath><path d="M 1900.3 323.7 L 1905.7 329.0 Q 1907.4 330.8 1905.7 332.5 L 1900.3 337.9 Q 1898.6 339.6 1896.9 337.9 L 1891.5 332.5 Q 1889.8 330.8 1891.5 329.0 L 1896.9 323.7 Q 1898.6 322.0 1900.3 323.7 Z" fill="#3F6B72" fill-opacity="0.36" stroke="#3F6B72" stroke-opacity="1.0" stroke-width="2.20"/><g clip-path="url(#clip2363560261)"><line x1="1890.1" y1="339.3" x2="1904.2" y2="325.1" stroke="#3F6B72" stroke-width="0.6" stroke-opacity="0.55"/><line x1="1891.5" y1="337.8" x2="1905.7" y2="323.7" stroke="#3F6B72" stroke-width="0.6" stroke-opacity="0.55"/><line x1="1893.0" y1="336.4" x2="1907.1" y2="322.3" stroke="#3F6B72" stroke-width="0.6" stroke-opacity="0.55"/></g></g><g><clipPath id="clip2394749289"><path d="M 1928.2 283.8 L 1933.5 289.1 Q 1935.3 290.9 1933.5 292.6 L 1928.2 297.9 Q 1926.5 299.7 1924.7 297.9 L 1919.4 292.6 Q 1917.6 290.9 1919.4 289.1 L 1924.7 283.8 Q 1926.5 282.0 1928.2 283.8 Z"/></clipPath><path d="M 1928.2 283.8 L 1933.5 289.1 Q 1935.3 290.9 1933.5 292.6 L 1928.2 297.9 Q 1926.5 299.7 1924.7 297.9 L 1919.4 292.6 Q 1917.6 290.9 1919.4 289.1 L 1924.7 283.8 Q 1926.5 282.0 1928.2 283.8 Z" fill="#3F6B72" fill-opacity="0.36" stroke="#3F6B72" stroke-opacity="1.0" stroke-width="1.52"/><g clip-path="url(#clip2394749289)"></g></g><g><clipPath id="clip2364142759"><path d="M 1946.4 356.2 L 1951.6 361.4 Q 1953.3 363.1 1951.6 364.8 L 1946.4 370.0 Q 1944.7 371.7 1943.0 370.0 L 1937.8 364.8 Q 1936.1 363.1 1937.8 361.4 L 1943.0 356.2 Q 1944.7 354.5 1946.4 356.2 Z"/></clipPath><path d="M 1946.4 356.2 L 1951.6 361.4 Q 1953.3 363.1 1951.6 364.8 L 1946.4 370.0 Q 1944.7 371.7 1943.0 370.0 L 1937.8 364.8 Q 1936.1 363.1 1937.8 361.4 L 1943.0 356.2 Q 1944.7 354.5 1946.4 356.2 Z" fill="#3F6B72" fill-opacity="0.36" stroke="#3F6B72" stroke-opacity="1.0" stroke-width="1.47"/><g clip-path="url(#clip2364142759)"><line x1="1936.3" y1="371.5" x2="1950.1" y2="357.8" stroke="#3F6B72" stroke-width="0.6" stroke-opacity="0.55"/><line x1="1937.3" y1="370.5" x2="1951.1" y2="356.7" stroke="#3F6B72" stroke-width="0.6" stroke-opacity="0.55"/><line x1="1938.4" y1="369.5" x2="1952.1" y2="355.7" stroke="#3F6B72" stroke-width="0.6" stroke-opacity="0.55"/><line x1="1939.4" y1="368.4" x2="1953.2" y2="354.7" stroke="#3F6B72" stroke-width="0.6" stroke-opacity="0.55"/></g></g><g><clipPath id="clip2365056752"><path d="M 1548.7 320.6 L 1559.3 320.6 L 1559.3 331.3 L 1548.7 331.3 Z"/></clipPath><path d="M 1548.7 320.6 L 1559.3 320.6 L 1559.3 331.3 L 1548.7 331.3 Z" fill="#9C948A" fill-opacity="0.2" stroke="#9C948A" stroke-opacity="1.0" stroke-width="1.39"/><g clip-path="url(#clip2365056752)"></g></g><g><clipPath id="clip2394444241"><path d="M 1945.0 268.7 L 1950.2 273.9 Q 1951.9 275.6 1950.2 277.3 L 1945.0 282.5 Q 1943.3 284.2 1941.6 282.5 L 1936.4 277.3 Q 1934.7 275.6 1936.4 273.9 L 1941.6 268.7 Q 1943.3 267.0 1945.0 268.7 Z"/></clipPath><path d="M 1945.0 268.7 L 1950.2 273.9 Q 1951.9 275.6 1950.2 277.3 L 1945.0 282.5 Q 1943.3 284.2 1941.6 282.5 L 1936.4 277.3 Q 1934.7 275.6 1936.4 273.9 L 1941.6 268.7 Q 1943.3 267.0 1945.0 268.7 Z" fill="#3F6B72" fill-opacity="0.36" stroke="#3F6B72" stroke-opacity="1.0" stroke-width="1.42"/><g clip-path="url(#clip2394444241)"><line x1="1935.3" y1="283.5" x2="1949.1" y2="269.7" stroke="#3F6B72" stroke-width="0.6" stroke-opacity="0.55"/><line x1="1937.4" y1="281.4" x2="1951.2" y2="267.6" stroke="#3F6B72" stroke-width="0.6" stroke-opacity="0.55"/></g></g><g><clipPath id="clip2075210820"><path d="M 1944.2 318.0 L 1949.3 323.1 Q 1950.9 324.7 1949.3 326.4 L 1944.2 331.4 Q 1942.6 333.1 1940.9 331.4 L 1935.9 326.4 Q 1934.2 324.7 1935.9 323.1 L 1940.9 318.0 Q 1942.6 316.3 1944.2 318.0 Z"/></clipPath><path d="M 1944.2 318.0 L 1949.3 323.1 Q 1950.9 324.7 1949.3 326.4 L 1944.2 331.4 Q 1942.6 333.1 1940.9 331.4 L 1935.9 326.4 Q 1934.2 324.7 1935.9 323.1 L 1940.9 318.0 Q 1942.6 316.3 1944.2 318.0 Z" fill="#3F6B72" fill-opacity="0.36" stroke="#3F6B72" stroke-opacity="1.0" stroke-width="2.96"/><g clip-path="url(#clip2075210820)"></g></g><g><clipPath id="clip2366980228"><path d="M 1932.5 303.8 L 1937.5 308.9 Q 1939.2 310.5 1937.5 312.2 L 1932.5 317.2 Q 1930.8 318.9 1929.2 317.2 L 1924.1 312.2 Q 1922.4 310.5 1924.1 308.9 L 1929.2 303.8 Q 1930.8 302.2 1932.5 303.8 Z"/></clipPath><path d="M 1932.5 303.8 L 1937.5 308.9 Q 1939.2 310.5 1937.5 312.2 L 1932.5 317.2 Q 1930.8 318.9 1929.2 317.2 L 1924.1 312.2 Q 1922.4 310.5 1924.1 308.9 L 1929.2 303.8 Q 1930.8 302.2 1932.5 303.8 Z" fill="#3F6B72" fill-opacity="0.36" stroke="#3F6B72" stroke-opacity="1.0" stroke-width="1.48"/><g clip-path="url(#clip2366980228)"></g></g><g><clipPath id="clip2415249074"><path d="M 1958.9 340.9 L 1963.9 346.0 Q 1965.6 347.6 1963.9 349.3 L 1958.9 354.3 Q 1957.2 356.0 1955.6 354.3 L 1950.5 349.3 Q 1948.9 347.6 1950.5 346.0 L 1955.6 340.9 Q 1957.2 339.3 1958.9 340.9 Z"/></clipPath><path d="M 1958.9 340.9 L 1963.9 346.0 Q 1965.6 347.6 1963.9 349.3 L 1958.9 354.3 Q 1957.2 356.0 1955.6 354.3 L 1950.5 349.3 Q 1948.9 347.6 1950.5 346.0 L 1955.6 340.9 Q 1957.2 339.3 1958.9 340.9 Z" fill="#3F6B72" fill-opacity="0.36" stroke="#3F6B72" stroke-opacity="1.0" stroke-width="1.26"/><g clip-path="url(#clip2415249074)"></g></g><g><clipPath id="clip1712185019"><path d="M 1970.1 269.1 L 1975.0 274.0 Q 1976.6 275.6 1975.0 277.2 L 1970.1 282.2 Q 1968.5 283.8 1966.9 282.2 L 1962.0 277.2 Q 1960.3 275.6 1962.0 274.0 L 1966.9 269.1 Q 1968.5 267.5 1970.1 269.1 Z"/></clipPath><path d="M 1970.1 269.1 L 1975.0 274.0 Q 1976.6 275.6 1975.0 277.2 L 1970.1 282.2 Q 1968.5 283.8 1966.9 282.2 L 1962.0 277.2 Q 1960.3 275.6 1962.0 274.0 L 1966.9 269.1 Q 1968.5 267.5 1970.1 269.1 Z" fill="#3F6B72" fill-opacity="0.36" stroke="#3F6B72" stroke-opacity="1.0" stroke-width="1.39"/><g clip-path="url(#clip1712185019)"><line x1="1961.0" y1="283.1" x2="1974.0" y2="270.1" stroke="#3F6B72" stroke-width="0.6" stroke-opacity="0.55"/><line x1="1962.9" y1="281.2" x2="1975.9" y2="268.2" stroke="#3F6B72" stroke-width="0.6" stroke-opacity="0.55"/></g></g><g><clipPath id="clip2073950737"><path d="M 1955.3 283.4 L 1960.2 288.3 Q 1961.8 289.9 1960.2 291.5 L 1955.3 296.4 Q 1953.7 298.1 1952.1 296.4 L 1947.2 291.5 Q 1945.6 289.9 1947.2 288.3 L 1952.1 283.4 Q 1953.7 281.8 1955.3 283.4 Z"/></clipPath><path d="M 1955.3 283.4 L 1960.2 288.3 Q 1961.8 289.9 1960.2 291.5 L 1955.3 296.4 Q 1953.7 298.1 1952.1 296.4 L 1947.2 291.5 Q 1945.6 289.9 1947.2 288.3 L 1952.1 283.4 Q 1953.7 281.8 1955.3 283.4 Z" fill="#3F6B72" fill-opacity="0.36" stroke="#3F6B72" stroke-opacity="1.0" stroke-width="2.07"/><g clip-path="url(#clip2073950737)"></g></g><g><clipPath id="clip2076063753"><path d="M 716.5 214.5 L 728.2 214.5 L 728.2 220.3 L 722.4 220.3 L 722.4 226.2 L 716.5 226.2 Z"/></clipPath><path d="M 716.5 214.5 L 728.2 214.5 L 728.2 220.3 L 722.4 220.3 L 722.4 226.2 L 716.5 226.2 Z" fill="#A8703C" fill-opacity="0.36" stroke="#A8703C" stroke-opacity="1.0" stroke-width="1.35"/><g clip-path="url(#clip2076063753)"></g></g><g><clipPath id="clip2377538116"><path d="M 1606.7 245.8 L 1616.8 245.8 L 1616.8 255.9 L 1606.7 255.9 Z"/></clipPath><path d="M 1606.7 245.8 L 1616.8 245.8 L 1616.8 255.9 L 1606.7 255.9 Z" fill="#9C948A" fill-opacity="0.2" stroke="#9C948A" stroke-opacity="1.0" stroke-width="1.46"/><g clip-path="url(#clip2377538116)"></g></g><g><clipPath id="clip2379972017"><path d="M 725.9 248.0 L 737.6 248.0 L 737.6 253.8 L 731.8 253.8 L 731.8 259.7 L 725.9 259.7 Z"/></clipPath><path d="M 725.9 248.0 L 737.6 248.0 L 737.6 253.8 L 731.8 253.8 L 731.8 259.7 L 725.9 259.7 Z" fill="#A8703C" fill-opacity="0.36" stroke="#A8703C" stroke-opacity="1.0" stroke-width="1.47"/><g clip-path="url(#clip2379972017)"><line x1="724.3" y1="261.3" x2="737.3" y2="248.3" stroke="#A8703C" stroke-width="0.6" stroke-opacity="0.55"/><line x1="726.3" y1="259.3" x2="739.3" y2="246.3" stroke="#A8703C" stroke-width="0.6" stroke-opacity="0.55"/></g></g><g><clipPath id="clip2095928556"><path d="M 1670.8 353.9 L 1680.6 353.9 L 1680.6 363.7 L 1670.8 363.7 Z"/></clipPath><path d="M 1670.8 353.9 L 1680.6 353.9 L 1680.6 363.7 L 1670.8 363.7 Z" fill="#9C948A" fill-opacity="0.2" stroke="#9C948A" stroke-opacity="1.0" stroke-width="1.46"/><g clip-path="url(#clip2095928556)"><line x1="1668.2" y1="366.4" x2="1680.7" y2="353.8" stroke="#9C948A" stroke-width="0.6" stroke-opacity="0.55"/><line x1="1669.4" y1="365.1" x2="1682.0" y2="352.5" stroke="#9C948A" stroke-width="0.6" stroke-opacity="0.55"/><line x1="1670.7" y1="363.8" x2="1683.2" y2="351.3" stroke="#9C948A" stroke-width="0.6" stroke-opacity="0.55"/></g></g><g><clipPath id="clip2111469954"><path d="M 1600.1 275.1 L 1609.9 275.1 L 1609.9 284.8 L 1600.1 284.8 Z"/></clipPath><path d="M 1600.1 275.1 L 1609.9 275.1 L 1609.9 284.8 L 1600.1 284.8 Z" fill="#9C948A" fill-opacity="0.2" stroke="#9C948A" stroke-opacity="1.0" stroke-width="1.43"/><g clip-path="url(#clip2111469954)"></g></g><g><clipPath id="clip2364626543"><path d="M 1954.1 328.6 L 1958.9 333.3 Q 1960.4 334.8 1958.9 336.4 L 1954.1 341.1 Q 1952.6 342.7 1951.0 341.1 L 1946.3 336.4 Q 1944.7 334.8 1946.3 333.3 L 1951.0 328.6 Q 1952.6 327.0 1954.1 328.6 Z"/></clipPath><path d="M 1954.1 328.6 L 1958.9 333.3 Q 1960.4 334.8 1958.9 336.4 L 1954.1 341.1 Q 1952.6 342.7 1951.0 341.1 L 1946.3 336.4 Q 1944.7 334.8 1946.3 333.3 L 1951.0 328.6 Q 1952.6 327.0 1954.1 328.6 Z" fill="#3F6B72" fill-opacity="0.36" stroke="#3F6B72" stroke-opacity="1.0" stroke-width="1.16"/><g clip-path="url(#clip2364626543)"></g></g><g><clipPath id="clip2377854026"><path d="M 746.4 224.8 L 757.7 224.8 L 757.7 230.4 L 752.1 230.4 L 752.1 236.1 L 746.4 236.1 Z"/></clipPath><path d="M 746.4 224.8 L 757.7 224.8 L 757.7 230.4 L 752.1 230.4 L 752.1 236.1 L 746.4 236.1 Z" fill="#A8703C" fill-opacity="0.36" stroke="#A8703C" stroke-opacity="1.0" stroke-width="1.64"/><g clip-path="url(#clip2377854026)"></g></g><g><clipPath id="clip1710838816"><path d="M 1967.2 288.4 L 1971.8 292.9 Q 1973.3 294.4 1971.8 295.9 L 1967.2 300.5 Q 1965.7 302.0 1964.2 300.5 L 1959.7 295.9 Q 1958.2 294.4 1959.7 292.9 L 1964.2 288.4 Q 1965.7 286.9 1967.2 288.4 Z"/></clipPath><path d="M 1967.2 288.4 L 1971.8 292.9 Q 1973.3 294.4 1971.8 295.9 L 1967.2 300.5 Q 1965.7 302.0 1964.2 300.5 L 1959.7 295.9 Q 1958.2 294.4 1959.7 292.9 L 1964.2 288.4 Q 1965.7 286.9 1967.2 288.4 Z" fill="#3F6B72" fill-opacity="0.36" stroke="#3F6B72" stroke-opacity="1.0" stroke-width="1.48"/><g clip-path="url(#clip1710838816)"></g></g><g><clipPath id="clip2083692080"><path d="M 1623.3 293.3 L 1632.6 293.3 L 1632.6 302.7 L 1623.3 302.7 Z"/></clipPath><path d="M 1623.3 293.3 L 1632.6 293.3 L 1632.6 302.7 L 1623.3 302.7 Z" fill="#9C948A" fill-opacity="0.2" stroke="#9C948A" stroke-opacity="1.0" stroke-width="1.18"/><g clip-path="url(#clip2083692080)"></g></g><g><clipPath id="clip2096200742"><path d="M 1975.1 341.8 L 1979.6 346.3 Q 1981.1 347.8 1979.6 349.3 L 1975.1 353.9 Q 1973.6 355.4 1972.1 353.9 L 1967.5 349.3 Q 1966.0 347.8 1967.5 346.3 L 1972.1 341.8 Q 1973.6 340.3 1975.1 341.8 Z"/></clipPath><path d="M 1975.1 341.8 L 1979.6 346.3 Q 1981.1 347.8 1979.6 349.3 L 1975.1 353.9 Q 1973.6 355.4 1972.1 353.9 L 1967.5 349.3 Q 1966.0 347.8 1967.5 346.3 L 1972.1 341.8 Q 1973.6 340.3 1975.1 341.8 Z" fill="#3F6B72" fill-opacity="0.36" stroke="#3F6B72" stroke-opacity="1.0" stroke-width="0.93"/><g clip-path="url(#clip2096200742)"></g></g><g><clipPath id="clip2110383617"><path d="M 1578.0 311.3 L 1587.3 311.3 L 1587.3 320.7 L 1578.0 320.7 Z"/></clipPath><path d="M 1578.0 311.3 L 1587.3 311.3 L 1587.3 320.7 L 1578.0 320.7 Z" fill="#9C948A" fill-opacity="0.2" stroke="#9C948A" stroke-opacity="1.0" stroke-width="1.54"/><g clip-path="url(#clip2110383617)"></g></g><g><clipPath id="clip2112684742"><path d="M 1536.5 191.7 L 1545.8 191.7 L 1545.8 201.1 L 1536.5 201.1 Z"/></clipPath><path d="M 1536.5 191.7 L 1545.8 191.7 L 1545.8 201.1 L 1536.5 201.1 Z" fill="#9C948A" fill-opacity="0.2" stroke="#9C948A" stroke-opacity="1.0" stroke-width="1.30"/><g clip-path="url(#clip2112684742)"><line x1="1533.7" y1="203.8" x2="1545.8" y2="191.7" stroke="#9C948A" stroke-width="0.6" stroke-opacity="0.55"/><line x1="1534.7" y1="202.9" x2="1546.7" y2="190.8" stroke="#9C948A" stroke-width="0.6" stroke-opacity="0.55"/><line x1="1535.6" y1="202.0" x2="1547.6" y2="189.9" stroke="#9C948A" stroke-width="0.6" stroke-opacity="0.55"/><line x1="1536.5" y1="201.1" x2="1548.5" y2="189.0" stroke="#9C948A" stroke-width="0.6" stroke-opacity="0.55"/></g></g><g><clipPath id="clip2363166435"><path d="M 693.0 235.4 L 703.9 235.4 L 703.9 240.8 L 698.5 240.8 L 698.5 246.3 L 693.0 246.3 Z"/></clipPath><path d="M 693.0 235.4 L 703.9 235.4 L 703.9 240.8 L 698.5 240.8 L 698.5 246.3 L 693.0 246.3 Z" fill="#A8703C" fill-opacity="0.36" stroke="#A8703C" stroke-opacity="1.0" stroke-width="2.06"/><g clip-path="url(#clip2363166435)"><line x1="691.1" y1="248.2" x2="703.2" y2="236.1" stroke="#A8703C" stroke-width="0.6" stroke-opacity="0.55"/><line x1="692.0" y1="247.3" x2="704.1" y2="235.2" stroke="#A8703C" stroke-width="0.6" stroke-opacity="0.55"/><line x1="692.9" y1="246.4" x2="705.0" y2="234.3" stroke="#A8703C" stroke-width="0.6" stroke-opacity="0.55"/><line x1="693.8" y1="245.5" x2="705.9" y2="233.4" stroke="#A8703C" stroke-width="0.6" stroke-opacity="0.55"/></g></g><g><clipPath id="clip2363754501"><path d="M 1955.8 296.5 L 1960.3 301.1 Q 1961.8 302.6 1960.3 304.1 L 1955.8 308.6 Q 1954.3 310.1 1952.8 308.6 L 1948.2 304.1 Q 1946.7 302.6 1948.2 301.1 L 1952.8 296.5 Q 1954.3 295.0 1955.8 296.5 Z"/></clipPath><path d="M 1955.8 296.5 L 1960.3 301.1 Q 1961.8 302.6 1960.3 304.1 L 1955.8 308.6 Q 1954.3 310.1 1952.8 308.6 L 1948.2 304.1 Q 1946.7 302.6 1948.2 301.1 L 1952.8 296.5 Q 1954.3 295.0 1955.8 296.5 Z" fill="#3F6B72" fill-opacity="0.36" stroke="#3F6B72" stroke-opacity="1.0" stroke-width="1.08"/><g clip-path="url(#clip2363754501)"></g></g><g><clipPath id="clip2369809406"><path d="M 666.0 222.9 L 676.9 222.9 L 676.9 228.3 L 671.4 228.3 L 671.4 233.8 L 666.0 233.8 Z"/></clipPath><path d="M 666.0 222.9 L 676.9 222.9 L 676.9 228.3 L 671.4 228.3 L 671.4 233.8 L 666.0 233.8 Z" fill="#A8703C" fill-opacity="0.36" stroke="#A8703C" stroke-opacity="1.0" stroke-width="1.63"/><g clip-path="url(#clip2369809406)"></g></g><g><clipPath id="clip2374496770"><path d="M 1528.7 276.6 L 1538.1 276.6 L 1538.1 286.0 L 1528.7 286.0 Z"/></clipPath><path d="M 1528.7 276.6 L 1538.1 276.6 L 1538.1 286.0 L 1528.7 286.0 Z" fill="#9C948A" fill-opacity="0.2" stroke="#9C948A" stroke-opacity="1.0" stroke-width="1.34"/><g clip-path="url(#clip2374496770)"></g></g><g><clipPath id="clip2376001868"><path d="M 1978.9 283.9 L 1983.5 288.5 Q 1985.0 290.0 1983.5 291.5 L 1978.9 296.1 Q 1977.4 297.5 1975.9 296.1 L 1971.4 291.5 Q 1969.9 290.0 1971.4 288.5 L 1975.9 283.9 Q 1977.4 282.4 1978.9 283.9 Z"/></clipPath><path d="M 1978.9 283.9 L 1983.5 288.5 Q 1985.0 290.0 1983.5 291.5 L 1978.9 296.1 Q 1977.4 297.5 1975.9 296.1 L 1971.4 291.5 Q 1969.9 290.0 1971.4 288.5 L 1975.9 283.9 Q 1977.4 282.4 1978.9 283.9 Z" fill="#3F6B72" fill-opacity="0.36" stroke="#3F6B72" stroke-opacity="1.0" stroke-width="1.18"/><g clip-path="url(#clip2376001868)"></g></g><g><clipPath id="clip2377853707"><path d="M 1573.5 358.4 L 1582.9 358.4 L 1582.9 367.7 L 1573.5 367.7 Z"/></clipPath><path d="M 1573.5 358.4 L 1582.9 358.4 L 1582.9 367.7 L 1573.5 367.7 Z" fill="#9C948A" fill-opacity="0.2" stroke="#9C948A" stroke-opacity="1.0" stroke-width="1.39"/><g clip-path="url(#clip2377853707)"></g></g><g><clipPath id="clip1710848892"><path d="M 2011.4 322.7 L 2015.8 327.0 Q 2017.2 328.5 2015.8 329.9 L 2011.4 334.2 Q 2010.0 335.7 2008.6 334.2 L 2004.2 329.9 Q 2002.8 328.5 2004.2 327.0 L 2008.6 322.7 Q 2010.0 321.2 2011.4 322.7 Z"/></clipPath><path d="M 2011.4 322.7 L 2015.8 327.0 Q 2017.2 328.5 2015.8 329.9 L 2011.4 334.2 Q 2010.0 335.7 2008.6 334.2 L 2004.2 329.9 Q 2002.8 328.5 2004.2 327.0 L 2008.6 322.7 Q 2010.0 321.2 2011.4 322.7 Z" fill="#3F6B72" fill-opacity="0.36" stroke="#3F6B72" stroke-opacity="1.0" stroke-width="1.55"/><g clip-path="url(#clip1710848892)"><line x1="2002.8" y1="335.6" x2="2014.4" y2="324.1" stroke="#3F6B72" stroke-width="0.6" stroke-opacity="0.55"/><line x1="2003.5" y1="334.9" x2="2015.1" y2="323.4" stroke="#3F6B72" stroke-width="0.6" stroke-opacity="0.55"/><line x1="2004.2" y1="334.2" x2="2015.8" y2="322.7" stroke="#3F6B72" stroke-width="0.6" stroke-opacity="0.55"/><line x1="2004.9" y1="333.5" x2="2016.5" y2="322.0" stroke="#3F6B72" stroke-width="0.6" stroke-opacity="0.55"/><line x1="2005.6" y1="332.8" x2="2017.2" y2="321.3" stroke="#3F6B72" stroke-width="0.6" stroke-opacity="0.55"/></g></g><g><clipPath id="clip1710854943"><path d="M 1969.6 332.2 L 1973.9 336.6 Q 1975.4 338.0 1973.9 339.4 L 1969.6 343.8 Q 1968.2 345.2 1966.7 343.8 L 1962.4 339.4 Q 1961.0 338.0 1962.4 336.6 L 1966.7 332.2 Q 1968.2 330.8 1969.6 332.2 Z"/></clipPath><path d="M 1969.6 332.2 L 1973.9 336.6 Q 1975.4 338.0 1973.9 339.4 L 1969.6 343.8 Q 1968.2 345.2 1966.7 343.8 L 1962.4 339.4 Q 1961.0 338.0 1962.4 336.6 L 1966.7 332.2 Q 1968.2 330.8 1969.6 332.2 Z" fill="#3F6B72" fill-opacity="0.36" stroke="#3F6B72" stroke-opacity="1.0" stroke-width="1.24"/><g clip-path="url(#clip1710854943)"></g></g><g><clipPath id="clip2078577689"><path d="M 1957.6 317.4 L 1961.9 321.8 Q 1963.3 323.2 1961.9 324.6 L 1957.6 329.0 Q 1956.1 330.4 1954.7 329.0 L 1950.3 324.6 Q 1948.9 323.2 1950.3 321.8 L 1954.7 317.4 Q 1956.1 316.0 1957.6 317.4 Z"/></clipPath><path d="M 1957.6 317.4 L 1961.9 321.8 Q 1963.3 323.2 1961.9 324.6 L 1957.6 329.0 Q 1956.1 330.4 1954.7 329.0 L 1950.3 324.6 Q 1948.9 323.2 1950.3 321.8 L 1954.7 317.4 Q 1956.1 316.0 1957.6 317.4 Z" fill="#3F6B72" fill-opacity="0.36" stroke="#3F6B72" stroke-opacity="1.0" stroke-width="1.46"/><g clip-path="url(#clip2078577689)"></g></g><g><clipPath id="clip2079120666"><path d="M 1652.0 271.6 L 1660.9 271.6 L 1660.9 280.6 L 1652.0 280.6 Z"/></clipPath><path d="M 1652.0 271.6 L 1660.9 271.6 L 1660.9 280.6 L 1652.0 280.6 Z" fill="#9C948A" fill-opacity="0.2" stroke="#9C948A" stroke-opacity="1.0" stroke-width="1.19"/><g clip-path="url(#clip2079120666)"></g></g><g><clipPath id="clip2108157365"><path d="M 1667.2 238.2 L 1676.2 238.2 L 1676.2 247.1 L 1667.2 247.1 Z"/></clipPath><path d="M 1667.2 238.2 L 1676.2 238.2 L 1676.2 247.1 L 1667.2 247.1 Z" fill="#9C948A" fill-opacity="0.2" stroke="#9C948A" stroke-opacity="1.0" stroke-width="1.27"/><g clip-path="url(#clip2108157365)"></g></g><g><clipPath id="clip2109587633"><path d="M 1958.0 307.7 L 1962.3 312.1 Q 1963.8 313.5 1962.3 314.9 L 1958.0 319.3 Q 1956.5 320.7 1955.1 319.3 L 1950.8 314.9 Q 1949.3 313.5 1950.8 312.1 L 1955.1 307.7 Q 1956.5 306.3 1958.0 307.7 Z"/></clipPath><path d="M 1958.0 307.7 L 1962.3 312.1 Q 1963.8 313.5 1962.3 314.9 L 1958.0 319.3 Q 1956.5 320.7 1955.1 319.3 L 1950.8 314.9 Q 1949.3 313.5 1950.8 312.1 L 1955.1 307.7 Q 1956.5 306.3 1958.0 307.7 Z" fill="#3F6B72" fill-opacity="0.36" stroke="#3F6B72" stroke-opacity="1.0" stroke-width="1.65"/><g clip-path="url(#clip2109587633)"></g></g><g><clipPath id="clip2163049807"><path d="M 1579.2 257.7 L 1588.1 257.7 L 1588.1 266.6 L 1579.2 266.6 Z"/></clipPath><path d="M 1579.2 257.7 L 1588.1 257.7 L 1588.1 266.6 L 1579.2 266.6 Z" fill="#9C948A" fill-opacity="0.2" stroke="#9C948A" stroke-opacity="1.0" stroke-width="1.26"/><g clip-path="url(#clip2163049807)"></g></g><g><clipPath id="clip2361821826"><path d="M 1570.8 401.2 L 1579.8 401.2 L 1579.8 410.2 L 1570.8 410.2 Z"/></clipPath><path d="M 1570.8 401.2 L 1579.8 401.2 L 1579.8 410.2 L 1570.8 410.2 Z" fill="#9C948A" fill-opacity="0.2" stroke="#9C948A" stroke-opacity="1.0" stroke-width="1.13"/><g clip-path="url(#clip2361821826)"><line x1="1568.2" y1="412.9" x2="1579.7" y2="401.3" stroke="#9C948A" stroke-width="0.6" stroke-opacity="0.55"/><line x1="1568.8" y1="412.2" x2="1580.4" y2="400.6" stroke="#9C948A" stroke-width="0.6" stroke-opacity="0.55"/><line x1="1569.5" y1="411.5" x2="1581.1" y2="399.9" stroke="#9C948A" stroke-width="0.6" stroke-opacity="0.55"/><line x1="1570.2" y1="410.8" x2="1581.8" y2="399.2" stroke="#9C948A" stroke-width="0.6" stroke-opacity="0.55"/><line x1="1570.9" y1="410.1" x2="1582.5" y2="398.6" stroke="#9C948A" stroke-width="0.6" stroke-opacity="0.55"/></g></g><g><clipPath id="clip2362913240"><path d="M 1488.2 339.2 L 1497.2 339.2 L 1497.2 348.1 L 1488.2 348.1 Z"/></clipPath><path d="M 1488.2 339.2 L 1497.2 339.2 L 1497.2 348.1 L 1488.2 348.1 Z" fill="#9C948A" fill-opacity="0.2" stroke="#9C948A" stroke-opacity="1.0" stroke-width="1.16"/><g clip-path="url(#clip2362913240)"><line x1="1485.5" y1="350.8" x2="1497.1" y2="339.2" stroke="#9C948A" stroke-width="0.6" stroke-opacity="0.55"/><line x1="1486.2" y1="350.1" x2="1497.8" y2="338.6" stroke="#9C948A" stroke-width="0.6" stroke-opacity="0.55"/><line x1="1486.9" y1="349.4" x2="1498.5" y2="337.9" stroke="#9C948A" stroke-width="0.6" stroke-opacity="0.55"/><line x1="1487.6" y1="348.7" x2="1499.1" y2="337.2" stroke="#9C948A" stroke-width="0.6" stroke-opacity="0.55"/><line x1="1488.3" y1="348.0" x2="1499.8" y2="336.5" stroke="#9C948A" stroke-width="0.6" stroke-opacity="0.55"/></g></g><g><clipPath id="clip2365002075"><path d="M 633.9 234.7 L 644.2 234.7 L 644.2 239.9 L 639.0 239.9 L 639.0 245.1 L 633.9 245.1 Z"/></clipPath><path d="M 633.9 234.7 L 644.2 234.7 L 644.2 239.9 L 639.0 239.9 L 639.0 245.1 L 633.9 245.1 Z" fill="#A8703C" fill-opacity="0.36" stroke="#A8703C" stroke-opacity="1.0" stroke-width="1.42"/><g clip-path="url(#clip2365002075)"></g></g><g><clipPath id="clip2376440606"><path d="M 1638.2 318.2 L 1647.2 318.2 L 1647.2 327.1 L 1638.2 327.1 Z"/></clipPath><path d="M 1638.2 318.2 L 1647.2 318.2 L 1647.2 327.1 L 1638.2 327.1 Z" fill="#9C948A" fill-opacity="0.2" stroke="#9C948A" stroke-opacity="1.0" stroke-width="1.10"/><g clip-path="url(#clip2376440606)"></g></g><g><clipPath id="clip2377155019"><path d="M 1964.9 324.0 L 1969.3 328.4 Q 1970.7 329.8 1969.3 331.2 L 1964.9 335.6 Q 1963.5 337.0 1962.1 335.6 L 1957.7 331.2 Q 1956.3 329.8 1957.7 328.4 L 1962.1 324.0 Q 1963.5 322.6 1964.9 324.0 Z"/></clipPath><path d="M 1964.9 324.0 L 1969.3 328.4 Q 1970.7 329.8 1969.3 331.2 L 1964.9 335.6 Q 1963.5 337.0 1962.1 335.6 L 1957.7 331.2 Q 1956.3 329.8 1957.7 328.4 L 1962.1 324.0 Q 1963.5 322.6 1964.9 324.0 Z" fill="#3F6B72" fill-opacity="0.36" stroke="#3F6B72" stroke-opacity="1.0" stroke-width="0.94"/><g clip-path="url(#clip2377155019)"></g></g><g><clipPath id="clip2387448716"><path d="M 1947.1 306.6 L 1951.4 311.0 Q 1952.9 312.4 1951.4 313.8 L 1947.1 318.2 Q 1945.6 319.6 1944.2 318.2 L 1939.9 313.8 Q 1938.4 312.4 1939.9 311.0 L 1944.2 306.6 Q 1945.6 305.2 1947.1 306.6 Z"/></clipPath><path d="M 1947.1 306.6 L 1951.4 311.0 Q 1952.9 312.4 1951.4 313.8 L 1947.1 318.2 Q 1945.6 319.6 1944.2 318.2 L 1939.9 313.8 Q 1938.4 312.4 1939.9 311.0 L 1944.2 306.6 Q 1945.6 305.2 1947.1 306.6 Z" fill="#3F6B72" fill-opacity="0.36" stroke="#3F6B72" stroke-opacity="1.0" stroke-width="1.48"/><g clip-path="url(#clip2387448716)"></g></g><g><clipPath id="clip1760366351"><path d="M 1551.3 294.1 L 1559.8 294.1 L 1559.8 302.5 L 1551.3 302.5 Z"/></clipPath><path d="M 1551.3 294.1 L 1559.8 294.1 L 1559.8 302.5 L 1551.3 302.5 Z" fill="#9C948A" fill-opacity="0.2" stroke="#9C948A" stroke-opacity="1.0" stroke-width="1.11"/><g clip-path="url(#clip1760366351)"></g></g><g><clipPath id="clip1779765284"><path d="M 1522.9 305.6 L 1531.3 305.6 L 1531.3 314.1 L 1522.9 314.1 Z"/></clipPath><path d="M 1522.9 305.6 L 1531.3 305.6 L 1531.3 314.1 L 1522.9 314.1 Z" fill="#9C948A" fill-opacity="0.2" stroke="#9C948A" stroke-opacity="1.0" stroke-width="1.47"/><g clip-path="url(#clip1779765284)"></g></g><g><clipPath id="clip2074586448"><path d="M 1681.1 263.7 L 1689.5 263.7 L 1689.5 272.1 L 1681.1 272.1 Z"/></clipPath><path d="M 1681.1 263.7 L 1689.5 263.7 L 1689.5 272.1 L 1681.1 272.1 Z" fill="#9C948A" fill-opacity="0.2" stroke="#9C948A" stroke-opacity="1.0" stroke-width="1.62"/><g clip-path="url(#clip2074586448)"></g></g><g><clipPath id="clip2076051764"><path d="M 1603.1 195.2 L 1611.5 195.2 L 1611.5 203.7 L 1603.1 203.7 Z"/></clipPath><path d="M 1603.1 195.2 L 1611.5 195.2 L 1611.5 203.7 L 1603.1 203.7 Z" fill="#9C948A" fill-opacity="0.2" stroke="#9C948A" stroke-opacity="1.0" stroke-width="1.52"/><g clip-path="url(#clip2076051764)"></g></g><g><clipPath id="clip2088735416"><path d="M 2006.9 288.2 L 2011.0 292.4 Q 2012.3 293.7 2011.0 295.0 L 2006.9 299.2 Q 2005.5 300.5 2004.2 299.2 L 2000.1 295.0 Q 1998.7 293.7 2000.1 292.4 L 2004.2 288.2 Q 2005.5 286.9 2006.9 288.2 Z"/></clipPath><path d="M 2006.9 288.2 L 2011.0 292.4 Q 2012.3 293.7 2011.0 295.0 L 2006.9 299.2 Q 2005.5 300.5 2004.2 299.2 L 2000.1 295.0 Q 1998.7 293.7 2000.1 292.4 L 2004.2 288.2 Q 2005.5 286.9 2006.9 288.2 Z" fill="#3F6B72" fill-opacity="0.36" stroke="#3F6B72" stroke-opacity="1.0" stroke-width="1.12"/><g clip-path="url(#clip2088735416)"><line x1="1998.7" y1="300.5" x2="2009.6" y2="289.7" stroke="#3F6B72" stroke-width="0.6" stroke-opacity="0.55"/><line x1="1999.2" y1="300.1" x2="2010.1" y2="289.2" stroke="#3F6B72" stroke-width="0.6" stroke-opacity="0.55"/><line x1="1999.6" y1="299.6" x2="2010.5" y2="288.7" stroke="#3F6B72" stroke-width="0.6" stroke-opacity="0.55"/><line x1="2000.1" y1="299.1" x2="2011.0" y2="288.3" stroke="#3F6B72" stroke-width="0.6" stroke-opacity="0.55"/><line x1="2000.6" y1="298.7" x2="2011.5" y2="287.8" stroke="#3F6B72" stroke-width="0.6" stroke-opacity="0.55"/><line x1="2001.0" y1="298.2" x2="2011.9" y2="287.3" stroke="#3F6B72" stroke-width="0.6" stroke-opacity="0.55"/><line x1="2001.5" y1="297.7" x2="2012.4" y2="286.9" stroke="#3F6B72" stroke-width="0.6" stroke-opacity="0.55"/></g></g><g><clipPath id="clip2089066418"><path d="M 1974.6 296.5 L 1978.7 300.6 Q 1980.1 302.0 1978.7 303.3 L 1974.6 307.4 Q 1973.3 308.8 1971.9 307.4 L 1967.8 303.3 Q 1966.5 302.0 1967.8 300.6 L 1971.9 296.5 Q 1973.3 295.1 1974.6 296.5 Z"/></clipPath><path d="M 1974.6 296.5 L 1978.7 300.6 Q 1980.1 302.0 1978.7 303.3 L 1974.6 307.4 Q 1973.3 308.8 1971.9 307.4 L 1967.8 303.3 Q 1966.5 302.0 1967.8 300.6 L 1971.9 296.5 Q 1973.3 295.1 1974.6 296.5 Z" fill="#3F6B72" fill-opacity="0.36" stroke="#3F6B72" stroke-opacity="1.0" stroke-width="1.20"/><g clip-path="url(#clip2089066418)"></g></g><g><clipPath id="clip2090733670"><path d="M 1575.6 286.0 L 1584.0 286.0 L 1584.0 294.4 L 1575.6 294.4 Z"/></clipPath><path d="M 1575.6 286.0 L 1584.0 286.0 L 1584.0 294.4 L 1575.6 294.4 Z" fill="#9C948A" fill-opacity="0.2" stroke="#9C948A" stroke-opacity="1.0" stroke-width="1.20"/><g clip-path="url(#clip2090733670)"></g></g><g><clipPath id="clip2091195506"><path d="M 1980.1 331.0 L 1984.2 335.1 Q 1985.6 336.5 1984.2 337.8 L 1980.1 341.9 Q 1978.8 343.3 1977.4 341.9 L 1973.3 337.8 Q 1972.0 336.5 1973.3 335.1 L 1977.4 331.0 Q 1978.8 329.7 1980.1 331.0 Z"/></clipPath><path d="M 1980.1 331.0 L 1984.2 335.1 Q 1985.6 336.5 1984.2 337.8 L 1980.1 341.9 Q 1978.8 343.3 1977.4 341.9 L 1973.3 337.8 Q 1972.0 336.5 1973.3 335.1 L 1977.4 331.0 Q 1978.8 329.7 1980.1 331.0 Z" fill="#3F6B72" fill-opacity="0.36" stroke="#3F6B72" stroke-opacity="1.0" stroke-width="1.04"/><g clip-path="url(#clip2091195506)"></g></g><g><clipPath id="clip2092371968"><path d="M 1670.3 296.6 L 1678.7 296.6 L 1678.7 305.0 L 1670.3 305.0 Z"/></clipPath><path d="M 1670.3 296.6 L 1678.7 296.6 L 1678.7 305.0 L 1670.3 305.0 Z" fill="#9C948A" fill-opacity="0.2" stroke="#9C948A" stroke-opacity="1.0" stroke-width="1.60"/><g clip-path="url(#clip2092371968)"></g></g><g><clipPath id="clip2096194903"><path d="M 1995.6 346.4 L 1999.7 350.5 Q 2001.0 351.8 1999.7 353.2 L 1995.6 357.3 Q 1994.2 358.7 1992.9 357.3 L 1988.8 353.2 Q 1987.4 351.8 1988.8 350.5 L 1992.9 346.4 Q 1994.2 345.0 1995.6 346.4 Z"/></clipPath><path d="M 1995.6 346.4 L 1999.7 350.5 Q 2001.0 351.8 1999.7 353.2 L 1995.6 357.3 Q 1994.2 358.7 1992.9 357.3 L 1988.8 353.2 Q 1987.4 351.8 1988.8 350.5 L 1992.9 346.4 Q 1994.2 345.0 1995.6 346.4 Z" fill="#3F6B72" fill-opacity="0.36" stroke="#3F6B72" stroke-opacity="1.0" stroke-width="1.43"/><g clip-path="url(#clip2096194903)"><line x1="1987.4" y1="358.7" x2="1998.3" y2="347.8" stroke="#3F6B72" stroke-width="0.6" stroke-opacity="0.55"/><line x1="1987.8" y1="358.2" x2="1998.7" y2="347.3" stroke="#3F6B72" stroke-width="0.6" stroke-opacity="0.55"/><line x1="1988.3" y1="357.8" x2="1999.2" y2="346.9" stroke="#3F6B72" stroke-width="0.6" stroke-opacity="0.55"/><line x1="1988.8" y1="357.3" x2="1999.7" y2="346.4" stroke="#3F6B72" stroke-width="0.6" stroke-opacity="0.55"/><line x1="1989.2" y1="356.8" x2="2000.1" y2="345.9" stroke="#3F6B72" stroke-width="0.6" stroke-opacity="0.55"/><line x1="1989.7" y1="356.4" x2="2000.6" y2="345.5" stroke="#3F6B72" stroke-width="0.6" stroke-opacity="0.55"/><line x1="1990.2" y1="355.9" x2="2001.1" y2="345.0" stroke="#3F6B72" stroke-width="0.6" stroke-opacity="0.55"/></g></g><g><clipPath id="clip2361396594"><path d="M 1987.2 291.2 L 1991.3 295.4 Q 1992.7 296.7 1991.3 298.1 L 1987.2 302.2 Q 1985.9 303.5 1984.5 302.2 L 1980.4 298.1 Q 1979.1 296.7 1980.4 295.4 L 1984.5 291.2 Q 1985.9 289.9 1987.2 291.2 Z"/></clipPath><path d="M 1987.2 291.2 L 1991.3 295.4 Q 1992.7 296.7 1991.3 298.1 L 1987.2 302.2 Q 1985.9 303.5 1984.5 302.2 L 1980.4 298.1 Q 1979.1 296.7 1980.4 295.4 L 1984.5 291.2 Q 1985.9 289.9 1987.2 291.2 Z" fill="#3F6B72" fill-opacity="0.36" stroke="#3F6B72" stroke-opacity="1.0" stroke-width="0.89"/><g clip-path="url(#clip2361396594)"></g></g><g><clipPath id="clip2361455973"><path d="M 1619.4 220.7 L 1627.8 220.7 L 1627.8 229.1 L 1619.4 229.1 Z"/></clipPath><path d="M 1619.4 220.7 L 1627.8 220.7 L 1627.8 229.1 L 1619.4 229.1 Z" fill="#9C948A" fill-opacity="0.2" stroke="#9C948A" stroke-opacity="1.0" stroke-width="1.50"/><g clip-path="url(#clip2361455973)"></g></g><g><clipPath id="clip2365293907"><path d="M 1556.6 267.9 L 1565.0 267.9 L 1565.0 276.4 L 1556.6 276.4 Z"/></clipPath><path d="M 1556.6 267.9 L 1565.0 267.9 L 1565.0 276.4 L 1556.6 276.4 Z" fill="#9C948A" fill-opacity="0.2" stroke="#9C948A" stroke-opacity="1.0" stroke-width="0.90"/><g clip-path="url(#clip2365293907)"></g></g><g><clipPath id="clip2372157396"><path d="M 595.9 241.1 L 605.7 241.1 L 605.7 246.0 L 600.8 246.0 L 600.8 250.9 L 595.9 250.9 Z"/></clipPath><path d="M 595.9 241.1 L 605.7 241.1 L 605.7 246.0 L 600.8 246.0 L 600.8 250.9 L 595.9 250.9 Z" fill="#A8703C" fill-opacity="0.36" stroke="#A8703C" stroke-opacity="1.0" stroke-width="1.15"/><g clip-path="url(#clip2372157396)"></g></g><g><clipPath id="clip2372545490"><path d="M 1965.1 300.9 L 1969.2 305.0 Q 1970.6 306.4 1969.2 307.7 L 1965.1 311.8 Q 1963.8 313.2 1962.4 311.8 L 1958.3 307.7 Q 1957.0 306.4 1958.3 305.0 L 1962.4 300.9 Q 1963.8 299.6 1965.1 300.9 Z"/></clipPath><path d="M 1965.1 300.9 L 1969.2 305.0 Q 1970.6 306.4 1969.2 307.7 L 1965.1 311.8 Q 1963.8 313.2 1962.4 311.8 L 1958.3 307.7 Q 1957.0 306.4 1958.3 305.0 L 1962.4 300.9 Q 1963.8 299.6 1965.1 300.9 Z" fill="#3F6B72" fill-opacity="0.36" stroke="#3F6B72" stroke-opacity="1.0" stroke-width="1.45"/><g clip-path="url(#clip2372545490)"></g></g><g><clipPath id="clip2375452046"><path d="M 1637.3 244.1 L 1645.7 244.1 L 1645.7 252.5 L 1637.3 252.5 Z"/></clipPath><path d="M 1637.3 244.1 L 1645.7 244.1 L 1645.7 252.5 L 1637.3 252.5 Z" fill="#9C948A" fill-opacity="0.2" stroke="#9C948A" stroke-opacity="1.0" stroke-width="0.91"/><g clip-path="url(#clip2375452046)"></g></g><g><clipPath id="clip2375590693"><path d="M 1606.6 315.0 L 1615.0 315.0 L 1615.0 323.5 L 1606.6 323.5 Z"/></clipPath><path d="M 1606.6 315.0 L 1615.0 315.0 L 1615.0 323.5 L 1606.6 323.5 Z" fill="#9C948A" fill-opacity="0.2" stroke="#9C948A" stroke-opacity="1.0" stroke-width="1.07"/><g clip-path="url(#clip2375590693)"></g></g><g><clipPath id="clip2375618941"><path d="M 591.2 204.7 L 601.0 204.7 L 601.0 209.6 L 596.1 209.6 L 596.1 214.5 L 591.2 214.5 Z"/></clipPath><path d="M 591.2 204.7 L 601.0 204.7 L 601.0 209.6 L 596.1 209.6 L 596.1 214.5 L 591.2 214.5 Z" fill="#A8703C" fill-opacity="0.36" stroke="#A8703C" stroke-opacity="1.0" stroke-width="1.45"/><g clip-path="url(#clip2375618941)"></g></g><g><clipPath id="clip2377204502"><path d="M 612.2 210.1 L 622.0 210.1 L 622.0 215.0 L 617.1 215.0 L 617.1 219.9 L 612.2 219.9 Z"/></clipPath><path d="M 612.2 210.1 L 622.0 210.1 L 622.0 215.0 L 617.1 215.0 L 617.1 219.9 L 612.2 219.9 Z" fill="#A8703C" fill-opacity="0.36" stroke="#A8703C" stroke-opacity="1.0" stroke-width="1.54"/><g clip-path="url(#clip2377204502)"></g></g><g><clipPath id="clip2378387569"><path d="M 1989.1 330.7 L 1993.3 334.9 Q 1994.6 336.2 1993.3 337.5 L 1989.1 341.7 Q 1987.8 343.0 1986.5 341.7 L 1982.3 337.5 Q 1981.0 336.2 1982.3 334.9 L 1986.5 330.7 Q 1987.8 329.4 1989.1 330.7 Z"/></clipPath><path d="M 1989.1 330.7 L 1993.3 334.9 Q 1994.6 336.2 1993.3 337.5 L 1989.1 341.7 Q 1987.8 343.0 1986.5 341.7 L 1982.3 337.5 Q 1981.0 336.2 1982.3 334.9 L 1986.5 330.7 Q 1987.8 329.4 1989.1 330.7 Z" fill="#3F6B72" fill-opacity="0.36" stroke="#3F6B72" stroke-opacity="1.0" stroke-width="1.41"/><g clip-path="url(#clip2378387569)"></g></g><g><clipPath id="clip2381579128"><path d="M 632.4 215.4 L 642.2 215.4 L 642.2 220.3 L 637.3 220.3 L 637.3 225.2 L 632.4 225.2 Z"/></clipPath><path d="M 632.4 215.4 L 642.2 215.4 L 642.2 220.3 L 637.3 220.3 L 637.3 225.2 L 632.4 225.2 Z" fill="#A8703C" fill-opacity="0.36" stroke="#A8703C" stroke-opacity="1.0" stroke-width="1.60"/><g clip-path="url(#clip2381579128)"></g></g><g><clipPath id="clip2387555785"><path d="M 612.4 230.7 L 622.2 230.7 L 622.2 235.6 L 617.3 235.6 L 617.3 240.5 L 612.4 240.5 Z"/></clipPath><path d="M 612.4 230.7 L 622.2 230.7 L 622.2 235.6 L 617.3 235.6 L 617.3 240.5 L 612.4 240.5 Z" fill="#A8703C" fill-opacity="0.36" stroke="#A8703C" stroke-opacity="1.0" stroke-width="1.55"/><g clip-path="url(#clip2387555785)"></g></g><g><clipPath id="clip2394516164"><path d="M 587.0 227.9 L 596.8 227.9 L 596.8 232.8 L 591.9 232.8 L 591.9 237.7 L 587.0 237.7 Z"/></clipPath><path d="M 587.0 227.9 L 596.8 227.9 L 596.8 232.8 L 591.9 232.8 L 591.9 237.7 L 587.0 237.7 Z" fill="#A8703C" fill-opacity="0.36" stroke="#A8703C" stroke-opacity="1.0" stroke-width="1.15"/><g clip-path="url(#clip2394516164)"></g></g><g><clipPath id="clip1710806191"><path d="M 1646.3 215.8 L 1654.1 215.8 L 1654.1 223.6 L 1646.3 223.6 Z"/></clipPath><path d="M 1646.3 215.8 L 1654.1 215.8 L 1654.1 223.6 L 1646.3 223.6 Z" fill="#9C948A" fill-opacity="0.2" stroke="#9C948A" stroke-opacity="1.0" stroke-width="1.08"/><g clip-path="url(#clip1710806191)"></g></g><g><clipPath id="clip1710875839"><path d="M 1976.2 323.9 L 1979.9 327.7 Q 1981.2 328.9 1979.9 330.2 L 1976.2 334.0 Q 1974.9 335.2 1973.7 334.0 L 1969.9 330.2 Q 1968.6 328.9 1969.9 327.7 L 1973.7 323.9 Q 1974.9 322.7 1976.2 323.9 Z"/></clipPath><path d="M 1976.2 323.9 L 1979.9 327.7 Q 1981.2 328.9 1979.9 330.2 L 1976.2 334.0 Q 1974.9 335.2 1973.7 334.0 L 1969.9 330.2 Q 1968.6 328.9 1969.9 327.7 L 1973.7 323.9 Q 1974.9 322.7 1976.2 323.9 Z" fill="#3F6B72" fill-opacity="0.36" stroke="#3F6B72" stroke-opacity="1.0" stroke-width="1.39"/><g clip-path="url(#clip1710875839)"></g></g><g><clipPath id="clip1710879653"><path d="M 1981.7 300.4 L 1985.5 304.1 Q 1986.7 305.4 1985.5 306.6 L 1981.7 310.4 Q 1980.4 311.7 1979.2 310.4 L 1975.4 306.6 Q 1974.2 305.4 1975.4 304.1 L 1979.2 300.4 Q 1980.4 299.1 1981.7 300.4 Z"/></clipPath><path d="M 1981.7 300.4 L 1985.5 304.1 Q 1986.7 305.4 1985.5 306.6 L 1981.7 310.4 Q 1980.4 311.7 1979.2 310.4 L 1975.4 306.6 Q 1974.2 305.4 1975.4 304.1 L 1979.2 300.4 Q 1980.4 299.1 1981.7 300.4 Z" fill="#3F6B72" fill-opacity="0.36" stroke="#3F6B72" stroke-opacity="1.0" stroke-width="1.47"/><g clip-path="url(#clip1710879653)"></g></g><g><clipPath id="clip2075386656"><path d="M 1627.0 268.1 L 1634.8 268.1 L 1634.8 275.8 L 1627.0 275.8 Z"/></clipPath><path d="M 1627.0 268.1 L 1634.8 268.1 L 1634.8 275.8 L 1627.0 275.8 Z" fill="#9C948A" fill-opacity="0.2" stroke="#9C948A" stroke-opacity="1.0" stroke-width="3.00"/><g clip-path="url(#clip2075386656)"></g></g><g><clipPath id="clip2087576515"><path d="M 1998.3 304.0 L 2002.1 307.8 Q 2003.4 309.1 2002.1 310.3 L 1998.3 314.1 Q 1997.1 315.3 1995.8 314.1 L 1992.0 310.3 Q 1990.8 309.1 1992.0 307.8 L 1995.8 304.0 Q 1997.1 302.8 1998.3 304.0 Z"/></clipPath><path d="M 1998.3 304.0 L 2002.1 307.8 Q 2003.4 309.1 2002.1 310.3 L 1998.3 314.1 Q 1997.1 315.3 1995.8 314.1 L 1992.0 310.3 Q 1990.8 309.1 1992.0 307.8 L 1995.8 304.0 Q 1997.1 302.8 1998.3 304.0 Z" fill="#3F6B72" fill-opacity="0.36" stroke="#3F6B72" stroke-opacity="1.0" stroke-width="1.20"/><g clip-path="url(#clip2087576515)"></g></g><g><clipPath id="clip2089639258"><path d="M 1526.4 229.2 L 1534.1 229.2 L 1534.1 237.0 L 1526.4 237.0 Z"/></clipPath><path d="M 1526.4 229.2 L 1534.1 229.2 L 1534.1 237.0 L 1526.4 237.0 Z" fill="#9C948A" fill-opacity="0.2" stroke="#9C948A" stroke-opacity="1.0" stroke-width="1.09"/><g clip-path="url(#clip2089639258)"></g></g><g><clipPath id="clip2105737228"><path d="M 1592.7 219.2 L 1600.5 219.2 L 1600.5 227.0 L 1592.7 227.0 Z"/></clipPath><path d="M 1592.7 219.2 L 1600.5 219.2 L 1600.5 227.0 L 1592.7 227.0 Z" fill="#9C948A" fill-opacity="0.2" stroke="#9C948A" stroke-opacity="1.0" stroke-width="1.14"/><g clip-path="url(#clip2105737228)"></g></g><g><clipPath id="clip2366882505"><path d="M 575.8 215.5 L 584.8 215.5 L 584.8 220.0 L 580.3 220.0 L 580.3 224.6 L 575.8 224.6 Z"/></clipPath><path d="M 575.8 215.5 L 584.8 215.5 L 584.8 220.0 L 580.3 220.0 L 580.3 224.6 L 575.8 224.6 Z" fill="#A8703C" fill-opacity="0.36" stroke="#A8703C" stroke-opacity="1.0" stroke-width="2.02"/><g clip-path="url(#clip2366882505)"></g></g><g><clipPath id="clip2367019742"><path d="M 559.6 223.1 L 568.6 223.1 L 568.6 227.6 L 564.1 227.6 L 564.1 232.1 L 559.6 232.1 Z"/></clipPath><path d="M 559.6 223.1 L 568.6 223.1 L 568.6 227.6 L 564.1 227.6 L 564.1 232.1 L 559.6 232.1 Z" fill="#A8703C" fill-opacity="0.36" stroke="#A8703C" stroke-opacity="1.0" stroke-width="1.52"/><g clip-path="url(#clip2367019742)"></g></g><g><clipPath id="clip2368689110"><path d="M 2000.4 313.1 L 2004.2 316.9 Q 2005.4 318.1 2004.2 319.4 L 2000.4 323.2 Q 1999.1 324.4 1997.9 323.2 L 1994.1 319.4 Q 1992.9 318.1 1994.1 316.9 L 1997.9 313.1 Q 1999.1 311.9 2000.4 313.1 Z"/></clipPath><path d="M 2000.4 313.1 L 2004.2 316.9 Q 2005.4 318.1 2004.2 319.4 L 2000.4 323.2 Q 1999.1 324.4 1997.9 323.2 L 1994.1 319.4 Q 1992.9 318.1 1994.1 316.9 L 1997.9 313.1 Q 1999.1 311.9 2000.4 313.1 Z" fill="#3F6B72" fill-opacity="0.36" stroke="#3F6B72" stroke-opacity="1.0" stroke-width="1.25"/><g clip-path="url(#clip2368689110)"></g></g><g><clipPath id="clip2369713192"><path d="M 1995.6 324.3 L 1999.4 328.1 Q 2000.6 329.3 1999.4 330.5 L 1995.6 334.3 Q 1994.4 335.6 1993.1 334.3 L 1989.3 330.5 Q 1988.1 329.3 1989.3 328.1 L 1993.1 324.3 Q 1994.4 323.0 1995.6 324.3 Z"/></clipPath><path d="M 1995.6 324.3 L 1999.4 328.1 Q 2000.6 329.3 1999.4 330.5 L 1995.6 334.3 Q 1994.4 335.6 1993.1 334.3 L 1989.3 330.5 Q 1988.1 329.3 1989.3 328.1 L 1993.1 324.3 Q 1994.4 323.0 1995.6 324.3 Z" fill="#3F6B72" fill-opacity="0.36" stroke="#3F6B72" stroke-opacity="1.0" stroke-width="1.10"/><g clip-path="url(#clip2369713192)"></g></g><g><clipPath id="clip2371691059"><path d="M 1970.3 318.0 L 1974.1 321.8 Q 1975.4 323.0 1974.1 324.2 L 1970.3 328.0 Q 1969.1 329.3 1967.8 328.0 L 1964.0 324.2 Q 1962.8 323.0 1964.0 321.8 L 1967.8 318.0 Q 1969.1 316.7 1970.3 318.0 Z"/></clipPath><path d="M 1970.3 318.0 L 1974.1 321.8 Q 1975.4 323.0 1974.1 324.2 L 1970.3 328.0 Q 1969.1 329.3 1967.8 328.0 L 1964.0 324.2 Q 1962.8 323.0 1964.0 321.8 L 1967.8 318.0 Q 1969.1 316.7 1970.3 318.0 Z" fill="#3F6B72" fill-opacity="0.36" stroke="#3F6B72" stroke-opacity="1.0" stroke-width="1.49"/><g clip-path="url(#clip2371691059)"></g></g><g><clipPath id="clip2371870085"><path d="M 598.7 219.6 L 607.7 219.6 L 607.7 224.2 L 603.2 224.2 L 603.2 228.7 L 598.7 228.7 Z"/></clipPath><path d="M 598.7 219.6 L 607.7 219.6 L 607.7 224.2 L 603.2 224.2 L 603.2 228.7 L 598.7 228.7 Z" fill="#A8703C" fill-opacity="0.36" stroke="#A8703C" stroke-opacity="1.0" stroke-width="1.75"/><g clip-path="url(#clip2371870085)"></g></g><g><clipPath id="clip2372039355"><path d="M 1972.2 306.0 L 1976.0 309.7 Q 1977.2 311.0 1976.0 312.2 L 1972.2 316.0 Q 1971.0 317.3 1969.7 316.0 L 1965.9 312.2 Q 1964.7 311.0 1965.9 309.7 L 1969.7 306.0 Q 1971.0 304.7 1972.2 306.0 Z"/></clipPath><path d="M 1972.2 306.0 L 1976.0 309.7 Q 1977.2 311.0 1976.0 312.2 L 1972.2 316.0 Q 1971.0 317.3 1969.7 316.0 L 1965.9 312.2 Q 1964.7 311.0 1965.9 309.7 L 1969.7 306.0 Q 1971.0 304.7 1972.2 306.0 Z" fill="#3F6B72" fill-opacity="0.36" stroke="#3F6B72" stroke-opacity="1.0" stroke-width="1.03"/><g clip-path="url(#clip2372039355)"></g></g><g><clipPath id="clip2372628364"><path d="M 1498.3 247.5 L 1506.1 247.5 L 1506.1 255.3 L 1498.3 255.3 Z"/></clipPath><path d="M 1498.3 247.5 L 1506.1 247.5 L 1506.1 255.3 L 1498.3 255.3 Z" fill="#9C948A" fill-opacity="0.2" stroke="#9C948A" stroke-opacity="1.0" stroke-width="1.22"/><g clip-path="url(#clip2372628364)"></g></g><g><clipPath id="clip2372841177"><path d="M 562.1 207.2 L 571.1 207.2 L 571.1 211.7 L 566.6 211.7 L 566.6 216.2 L 562.1 216.2 Z"/></clipPath><path d="M 562.1 207.2 L 571.1 207.2 L 571.1 211.7 L 566.6 211.7 L 566.6 216.2 L 562.1 216.2 Z" fill="#A8703C" fill-opacity="0.36" stroke="#A8703C" stroke-opacity="1.0" stroke-width="1.20"/><g clip-path="url(#clip2372841177)"></g></g><g><clipPath id="clip2376082571"><path d="M 544.0 228.0 L 553.0 228.0 L 553.0 232.5 L 548.5 232.5 L 548.5 237.0 L 544.0 237.0 Z"/></clipPath><path d="M 544.0 228.0 L 553.0 228.0 L 553.0 232.5 L 548.5 232.5 L 548.5 237.0 L 544.0 237.0 Z" fill="#A8703C" fill-opacity="0.36" stroke="#A8703C" stroke-opacity="1.0" stroke-width="1.01"/><g clip-path="url(#clip2376082571)"></g></g><g><clipPath id="clip2377159507"><path d="M 1540.7 250.7 L 1548.4 250.7 L 1548.4 258.5 L 1540.7 258.5 Z"/></clipPath><path d="M 1540.7 250.7 L 1548.4 250.7 L 1548.4 258.5 L 1540.7 258.5 Z" fill="#9C948A" fill-opacity="0.2" stroke="#9C948A" stroke-opacity="1.0" stroke-width="0.91"/><g clip-path="url(#clip2377159507)"></g></g><g><clipPath id="clip2377572386"><path d="M 1991.0 299.5 L 1994.7 303.3 Q 1996.0 304.5 1994.7 305.8 L 1991.0 309.6 Q 1989.7 310.8 1988.5 309.6 L 1984.7 305.8 Q 1983.4 304.5 1984.7 303.3 L 1988.5 299.5 Q 1989.7 298.3 1991.0 299.5 Z"/></clipPath><path d="M 1991.0 299.5 L 1994.7 303.3 Q 1996.0 304.5 1994.7 305.8 L 1991.0 309.6 Q 1989.7 310.8 1988.5 309.6 L 1984.7 305.8 Q 1983.4 304.5 1984.7 303.3 L 1988.5 299.5 Q 1989.7 298.3 1991.0 299.5 Z" fill="#3F6B72" fill-opacity="0.36" stroke="#3F6B72" stroke-opacity="1.0" stroke-width="1.35"/><g clip-path="url(#clip2377572386)"></g></g><g><clipPath id="clip2377904146"><path d="M 1966.0 311.7 L 1969.8 315.5 Q 1971.0 316.8 1969.8 318.0 L 1966.0 321.8 Q 1964.8 323.0 1963.5 321.8 L 1959.7 318.0 Q 1958.5 316.8 1959.7 315.5 L 1963.5 311.7 Q 1964.8 310.5 1966.0 311.7 Z"/></clipPath><path d="M 1966.0 311.7 L 1969.8 315.5 Q 1971.0 316.8 1969.8 318.0 L 1966.0 321.8 Q 1964.8 323.0 1963.5 321.8 L 1959.7 318.0 Q 1958.5 316.8 1959.7 315.5 L 1963.5 311.7 Q 1964.8 310.5 1966.0 311.7 Z" fill="#3F6B72" fill-opacity="0.36" stroke="#3F6B72" stroke-opacity="1.0" stroke-width="1.09"/><g clip-path="url(#clip2377904146)"></g></g><g><clipPath id="clip2384657999"><path d="M 570.4 233.5 L 579.4 233.5 L 579.4 238.0 L 574.9 238.0 L 574.9 242.5 L 570.4 242.5 Z"/></clipPath><path d="M 570.4 233.5 L 579.4 233.5 L 579.4 238.0 L 574.9 238.0 L 574.9 242.5 L 570.4 242.5 Z" fill="#A8703C" fill-opacity="0.36" stroke="#A8703C" stroke-opacity="1.0" stroke-width="1.32"/><g clip-path="url(#clip2384657999)"></g></g><g><clipPath id="clip2396592300"><path d="M 542.8 211.5 L 551.8 211.5 L 551.8 216.1 L 547.3 216.1 L 547.3 220.6 L 542.8 220.6 Z"/></clipPath><path d="M 542.8 211.5 L 551.8 211.5 L 551.8 216.1 L 547.3 216.1 L 547.3 220.6 L 542.8 220.6 Z" fill="#A8703C" fill-opacity="0.36" stroke="#A8703C" stroke-opacity="1.0" stroke-width="1.27"/><g clip-path="url(#clip2396592300)"></g></g><g><clipPath id="clip1642945749"><path d="M 1988.9 315.3 L 1991.9 318.3 Q 1992.9 319.3 1991.9 320.3 L 1988.9 323.3 Q 1987.9 324.3 1986.9 323.3 L 1983.9 320.3 Q 1982.9 319.3 1983.9 318.3 L 1986.9 315.3 Q 1987.9 314.3 1988.9 315.3 Z"/></clipPath><path d="M 1988.9 315.3 L 1991.9 318.3 Q 1992.9 319.3 1991.9 320.3 L 1988.9 323.3 Q 1987.9 324.3 1986.9 323.3 L 1983.9 320.3 Q 1982.9 319.3 1983.9 318.3 L 1986.9 315.3 Q 1987.9 314.3 1988.9 315.3 Z" fill="#3F6B72" fill-opacity="0.36" stroke="#3F6B72" stroke-opacity="1.0" stroke-width="1.03"/><g clip-path="url(#clip1642945749)"></g></g><g><clipPath id="clip1644069747"><path d="M 1694.4 285.4 L 1700.6 285.4 L 1700.6 291.6 L 1694.4 291.6 Z"/></clipPath><path d="M 1694.4 285.4 L 1700.6 285.4 L 1700.6 291.6 L 1694.4 291.6 Z" fill="#9C948A" fill-opacity="0.2" stroke="#9C948A" stroke-opacity="1.0" stroke-width="1.15"/><g clip-path="url(#clip1644069747)"></g></g><g><clipPath id="clip1644623143"><path d="M 1520.5 255.5 L 1526.7 255.5 L 1526.7 261.7 L 1520.5 261.7 Z"/></clipPath><path d="M 1520.5 255.5 L 1526.7 255.5 L 1526.7 261.7 L 1520.5 261.7 Z" fill="#9C948A" fill-opacity="0.2" stroke="#9C948A" stroke-opacity="1.0" stroke-width="1.06"/><g clip-path="url(#clip1644623143)"></g></g><g><clipPath id="clip1712202607"><path d="M 1990.9 308.0 L 1993.9 311.0 Q 1994.9 312.0 1993.9 313.0 L 1990.9 316.0 Q 1989.9 317.0 1988.9 316.0 L 1985.9 313.0 Q 1984.9 312.0 1985.9 311.0 L 1988.9 308.0 Q 1989.9 307.0 1990.9 308.0 Z"/></clipPath><path d="M 1990.9 308.0 L 1993.9 311.0 Q 1994.9 312.0 1993.9 313.0 L 1990.9 316.0 Q 1989.9 317.0 1988.9 316.0 L 1985.9 313.0 Q 1984.9 312.0 1985.9 311.0 L 1988.9 308.0 Q 1989.9 307.0 1990.9 308.0 Z" fill="#3F6B72" fill-opacity="0.36" stroke="#3F6B72" stroke-opacity="1.0" stroke-width="1.45"/><g clip-path="url(#clip1712202607)"></g></g><g><clipPath id="clip1758047553"><path d="M 1579.4 191.2 L 1585.6 191.2 L 1585.6 197.4 L 1579.4 197.4 Z"/></clipPath><path d="M 1579.4 191.2 L 1585.6 191.2 L 1585.6 197.4 L 1579.4 197.4 Z" fill="#9C948A" fill-opacity="0.2" stroke="#9C948A" stroke-opacity="1.0" stroke-width="2.03"/><g clip-path="url(#clip1758047553)"></g></g><g><clipPath id="clip1779652481"><path d="M 1630.9 196.9 L 1637.1 196.9 L 1637.1 203.1 L 1630.9 203.1 Z"/></clipPath><path d="M 1630.9 196.9 L 1637.1 196.9 L 1637.1 203.1 L 1630.9 203.1 Z" fill="#9C948A" fill-opacity="0.2" stroke="#9C948A" stroke-opacity="1.0" stroke-width="1.13"/><g clip-path="url(#clip1779652481)"></g></g><g><clipPath id="clip1779723832"><path d="M 1570.7 337.1 L 1576.9 337.1 L 1576.9 343.3 L 1570.7 343.3 Z"/></clipPath><path d="M 1570.7 337.1 L 1576.9 337.1 L 1576.9 343.3 L 1570.7 343.3 Z" fill="#9C948A" fill-opacity="0.2" stroke="#9C948A" stroke-opacity="1.0" stroke-width="1.32"/><g clip-path="url(#clip1779723832)"></g></g><g><clipPath id="clip1779743062"><path d="M 1588.3 333.8 L 1594.5 333.8 L 1594.5 340.0 L 1588.3 340.0 Z"/></clipPath><path d="M 1588.3 333.8 L 1594.5 333.8 L 1594.5 340.0 L 1588.3 340.0 Z" fill="#9C948A" fill-opacity="0.2" stroke="#9C948A" stroke-opacity="1.0" stroke-width="1.52"/><g clip-path="url(#clip1779743062)"></g></g><g><clipPath id="clip2071086963"><path d="M 1990.1 320.5 L 1993.1 323.5 Q 1994.1 324.5 1993.1 325.5 L 1990.1 328.5 Q 1989.1 329.5 1988.1 328.5 L 1985.1 325.5 Q 1984.1 324.5 1985.1 323.5 L 1988.1 320.5 Q 1989.1 319.5 1990.1 320.5 Z"/></clipPath><path d="M 1990.1 320.5 L 1993.1 323.5 Q 1994.1 324.5 1993.1 325.5 L 1990.1 328.5 Q 1989.1 329.5 1988.1 328.5 L 1985.1 325.5 Q 1984.1 324.5 1985.1 323.5 L 1988.1 320.5 Q 1989.1 319.5 1990.1 320.5 Z" fill="#3F6B72" fill-opacity="0.36" stroke="#3F6B72" stroke-opacity="1.0" stroke-width="1.41"/><g clip-path="url(#clip2071086963)"></g></g><g><clipPath id="clip2074967732"><path d="M 1985.8 306.7 L 1988.9 309.7 Q 1989.9 310.7 1988.9 311.7 L 1985.8 314.7 Q 1984.9 315.7 1983.9 314.7 L 1980.8 311.7 Q 1979.9 310.7 1980.8 309.7 L 1983.9 306.7 Q 1984.9 305.7 1985.8 306.7 Z"/></clipPath><path d="M 1985.8 306.7 L 1988.9 309.7 Q 1989.9 310.7 1988.9 311.7 L 1985.8 314.7 Q 1984.9 315.7 1983.9 314.7 L 1980.8 311.7 Q 1979.9 310.7 1980.8 309.7 L 1983.9 306.7 Q 1984.9 305.7 1985.8 306.7 Z" fill="#3F6B72" fill-opacity="0.36" stroke="#3F6B72" stroke-opacity="1.0" stroke-width="1.55"/><g clip-path="url(#clip2074967732)"></g></g><g><clipPath id="clip2075240700"><path d="M 1992.9 312.3 L 1995.9 315.3 Q 1996.9 316.3 1995.9 317.3 L 1992.9 320.3 Q 1991.9 321.3 1990.9 320.3 L 1987.9 317.3 Q 1986.9 316.3 1987.9 315.3 L 1990.9 312.3 Q 1991.9 311.3 1992.9 312.3 Z"/></clipPath><path d="M 1992.9 312.3 L 1995.9 315.3 Q 1996.9 316.3 1995.9 317.3 L 1992.9 320.3 Q 1991.9 321.3 1990.9 320.3 L 1987.9 317.3 Q 1986.9 316.3 1987.9 315.3 L 1990.9 312.3 Q 1991.9 311.3 1992.9 312.3 Z" fill="#3F6B72" fill-opacity="0.36" stroke="#3F6B72" stroke-opacity="1.0" stroke-width="1.61"/><g clip-path="url(#clip2075240700)"></g></g><g><clipPath id="clip2075284057"><path d="M 1987.7 311.1 L 1990.7 314.1 Q 1991.7 315.1 1990.7 316.1 L 1987.7 319.1 Q 1986.7 320.1 1985.7 319.1 L 1982.7 316.1 Q 1981.7 315.1 1982.7 314.1 L 1985.7 311.1 Q 1986.7 310.1 1987.7 311.1 Z"/></clipPath><path d="M 1987.7 311.1 L 1990.7 314.1 Q 1991.7 315.1 1990.7 316.1 L 1987.7 319.1 Q 1986.7 320.1 1985.7 319.1 L 1982.7 316.1 Q 1981.7 315.1 1982.7 314.1 L 1985.7 311.1 Q 1986.7 310.1 1987.7 311.1 Z" fill="#3F6B72" fill-opacity="0.36" stroke="#3F6B72" stroke-opacity="1.0" stroke-width="1.60"/><g clip-path="url(#clip2075284057)"></g></g><g><clipPath id="clip2075444244"><path d="M 1986.1 323.4 L 1989.1 326.4 Q 1990.1 327.4 1989.1 328.4 L 1986.1 331.4 Q 1985.1 332.4 1984.1 331.4 L 1981.1 328.4 Q 1980.1 327.4 1981.1 326.4 L 1984.1 323.4 Q 1985.1 322.4 1986.1 323.4 Z"/></clipPath><path d="M 1986.1 323.4 L 1989.1 326.4 Q 1990.1 327.4 1989.1 328.4 L 1986.1 331.4 Q 1985.1 332.4 1984.1 331.4 L 1981.1 328.4 Q 1980.1 327.4 1981.1 326.4 L 1984.1 323.4 Q 1985.1 322.4 1986.1 323.4 Z" fill="#3F6B72" fill-opacity="0.36" stroke="#3F6B72" stroke-opacity="1.0" stroke-width="1.27"/><g clip-path="url(#clip2075444244)"></g></g><g><clipPath id="clip2076061704"><path d="M 1597.7 298.4 L 1603.9 298.4 L 1603.9 304.6 L 1597.7 304.6 Z"/></clipPath><path d="M 1597.7 298.4 L 1603.9 298.4 L 1603.9 304.6 L 1597.7 304.6 Z" fill="#9C948A" fill-opacity="0.2" stroke="#9C948A" stroke-opacity="1.0" stroke-width="1.43"/><g clip-path="url(#clip2076061704)"></g></g><g><clipPath id="clip2076070353"><path d="M 1685.3 320.4 L 1691.5 320.4 L 1691.5 326.6 L 1685.3 326.6 Z"/></clipPath><path d="M 1685.3 320.4 L 1691.5 320.4 L 1691.5 326.6 L 1685.3 326.6 Z" fill="#9C948A" fill-opacity="0.2" stroke="#9C948A" stroke-opacity="1.0" stroke-width="1.31"/><g clip-path="url(#clip2076070353)"></g></g><g><clipPath id="clip2083658906"><path d="M 1664.6 321.2 L 1670.8 321.2 L 1670.8 327.4 L 1664.6 327.4 Z"/></clipPath><path d="M 1664.6 321.2 L 1670.8 321.2 L 1670.8 327.4 L 1664.6 327.4 Z" fill="#9C948A" fill-opacity="0.2" stroke="#9C948A" stroke-opacity="1.0" stroke-width="1.08"/><g clip-path="url(#clip2083658906)"></g></g><g><clipPath id="clip2088625377"><path d="M 1523.2 329.6 L 1529.4 329.6 L 1529.4 335.8 L 1523.2 335.8 Z"/></clipPath><path d="M 1523.2 329.6 L 1529.4 329.6 L 1529.4 335.8 L 1523.2 335.8 Z" fill="#9C948A" fill-opacity="0.2" stroke="#9C948A" stroke-opacity="1.0" stroke-width="0.91"/><g clip-path="url(#clip2088625377)"></g></g><g><clipPath id="clip2091152348"><path d="M 1981.8 321.4 L 1984.8 324.4 Q 1985.8 325.4 1984.8 326.4 L 1981.8 329.4 Q 1980.8 330.4 1979.8 329.4 L 1976.8 326.4 Q 1975.8 325.4 1976.8 324.4 L 1979.8 321.4 Q 1980.8 320.4 1981.8 321.4 Z"/></clipPath><path d="M 1981.8 321.4 L 1984.8 324.4 Q 1985.8 325.4 1984.8 326.4 L 1981.8 329.4 Q 1980.8 330.4 1979.8 329.4 L 1976.8 326.4 Q 1975.8 325.4 1976.8 324.4 L 1979.8 321.4 Q 1980.8 320.4 1981.8 321.4 Z" fill="#3F6B72" fill-opacity="0.36" stroke="#3F6B72" stroke-opacity="1.0" stroke-width="1.17"/><g clip-path="url(#clip2091152348)"></g></g><g><clipPath id="clip2095913092"><path d="M 1648.0 296.9 L 1654.2 296.9 L 1654.2 303.1 L 1648.0 303.1 Z"/></clipPath><path d="M 1648.0 296.9 L 1654.2 296.9 L 1654.2 303.1 L 1648.0 303.1 Z" fill="#9C948A" fill-opacity="0.2" stroke="#9C948A" stroke-opacity="1.0" stroke-width="1.14"/><g clip-path="url(#clip2095913092)"></g></g><g><clipPath id="clip2142534475"><path d="M 1704.0 304.7 L 1710.2 304.7 L 1710.2 310.9 L 1704.0 310.9 Z"/></clipPath><path d="M 1704.0 304.7 L 1710.2 304.7 L 1710.2 310.9 L 1704.0 310.9 Z" fill="#9C948A" fill-opacity="0.2" stroke="#9C948A" stroke-opacity="1.0" stroke-width="1.19"/><g clip-path="url(#clip2142534475)"></g></g><g><clipPath id="clip2142940353"><path d="M 1984.4 313.6 L 1987.4 316.7 Q 1988.4 317.6 1987.4 318.6 L 1984.4 321.7 Q 1983.4 322.6 1982.4 321.7 L 1979.4 318.6 Q 1978.4 317.6 1979.4 316.7 L 1982.4 313.6 Q 1983.4 312.6 1984.4 313.6 Z"/></clipPath><path d="M 1984.4 313.6 L 1987.4 316.7 Q 1988.4 317.6 1987.4 318.6 L 1984.4 321.7 Q 1983.4 322.6 1982.4 321.7 L 1979.4 318.6 Q 1978.4 317.6 1979.4 316.7 L 1982.4 313.6 Q 1983.4 312.6 1984.4 313.6 Z" fill="#3F6B72" fill-opacity="0.36" stroke="#3F6B72" stroke-opacity="1.0" stroke-width="1.09"/><g clip-path="url(#clip2142940353)"></g></g><g><clipPath id="clip2142943175"><path d="M 1981.8 316.9 L 1984.8 319.9 Q 1985.8 320.9 1984.8 321.9 L 1981.8 324.9 Q 1980.8 325.9 1979.8 324.9 L 1976.8 321.9 Q 1975.8 320.9 1976.8 319.9 L 1979.8 316.9 Q 1980.8 315.9 1981.8 316.9 Z"/></clipPath><path d="M 1981.8 316.9 L 1984.8 319.9 Q 1985.8 320.9 1984.8 321.9 L 1981.8 324.9 Q 1980.8 325.9 1979.8 324.9 L 1976.8 321.9 Q 1975.8 320.9 1976.8 319.9 L 1979.8 316.9 Q 1980.8 315.9 1981.8 316.9 Z" fill="#3F6B72" fill-opacity="0.36" stroke="#3F6B72" stroke-opacity="1.0" stroke-width="1.21"/><g clip-path="url(#clip2142943175)"></g></g><g><clipPath id="clip2370539398"><path d="M 1993.6 317.2 L 1996.6 320.2 Q 1997.6 321.2 1996.6 322.2 L 1993.6 325.2 Q 1992.6 326.2 1991.6 325.2 L 1988.6 322.2 Q 1987.6 321.2 1988.6 320.2 L 1991.6 317.2 Q 1992.6 316.2 1993.6 317.2 Z"/></clipPath><path d="M 1993.6 317.2 L 1996.6 320.2 Q 1997.6 321.2 1996.6 322.2 L 1993.6 325.2 Q 1992.6 326.2 1991.6 325.2 L 1988.6 322.2 Q 1987.6 321.2 1988.6 320.2 L 1991.6 317.2 Q 1992.6 316.2 1993.6 317.2 Z" fill="#3F6B72" fill-opacity="0.36" stroke="#3F6B72" stroke-opacity="1.0" stroke-width="0.89"/><g clip-path="url(#clip2370539398)"></g></g><g><clipPath id="clip2374332085"><path d="M 1571.6 208.1 L 1577.8 208.1 L 1577.8 214.3 L 1571.6 214.3 Z"/></clipPath><path d="M 1571.6 208.1 L 1577.8 208.1 L 1577.8 214.3 L 1571.6 214.3 Z" fill="#9C948A" fill-opacity="0.2" stroke="#9C948A" stroke-opacity="1.0" stroke-width="1.11"/><g clip-path="url(#clip2374332085)"></g></g><g><clipPath id="clip2375168878"><path d="M 1982.6 309.6 L 1985.6 312.6 Q 1986.6 313.6 1985.6 314.6 L 1982.6 317.6 Q 1981.6 318.6 1980.6 317.6 L 1977.6 314.6 Q 1976.6 313.6 1977.6 312.6 L 1980.6 309.6 Q 1981.6 308.6 1982.6 309.6 Z"/></clipPath><path d="M 1982.6 309.6 L 1985.6 312.6 Q 1986.6 313.6 1985.6 314.6 L 1982.6 317.6 Q 1981.6 318.6 1980.6 317.6 L 1977.6 314.6 Q 1976.6 313.6 1977.6 312.6 L 1980.6 309.6 Q 1981.6 308.6 1982.6 309.6 Z" fill="#3F6B72" fill-opacity="0.36" stroke="#3F6B72" stroke-opacity="1.0" stroke-width="1.19"/><g clip-path="url(#clip2375168878)"></g></g><g><clipPath id="clip2376392956"><path d="M 1977.4 317.8 L 1980.4 320.8 Q 1981.4 321.8 1980.4 322.8 L 1977.4 325.8 Q 1976.4 326.8 1975.4 325.8 L 1972.4 322.8 Q 1971.4 321.8 1972.4 320.8 L 1975.4 317.8 Q 1976.4 316.8 1977.4 317.8 Z"/></clipPath><path d="M 1977.4 317.8 L 1980.4 320.8 Q 1981.4 321.8 1980.4 322.8 L 1977.4 325.8 Q 1976.4 326.8 1975.4 325.8 L 1972.4 322.8 Q 1971.4 321.8 1972.4 320.8 L 1975.4 317.8 Q 1976.4 316.8 1977.4 317.8 Z" fill="#3F6B72" fill-opacity="0.36" stroke="#3F6B72" stroke-opacity="1.0" stroke-width="1.27"/><g clip-path="url(#clip2376392956)"></g></g><g><clipPath id="clip2377924305"><path d="M 1985.9 318.5 L 1988.9 321.6 Q 1989.9 322.6 1988.9 323.5 L 1985.9 326.6 Q 1984.9 327.6 1983.9 326.6 L 1980.9 323.5 Q 1979.9 322.6 1980.9 321.6 L 1983.9 318.5 Q 1984.9 317.6 1985.9 318.5 Z"/></clipPath><path d="M 1985.9 318.5 L 1988.9 321.6 Q 1989.9 322.6 1988.9 323.5 L 1985.9 326.6 Q 1984.9 327.6 1983.9 326.6 L 1980.9 323.5 Q 1979.9 322.6 1980.9 321.6 L 1983.9 318.5 Q 1984.9 317.6 1985.9 318.5 Z" fill="#3F6B72" fill-opacity="0.36" stroke="#3F6B72" stroke-opacity="1.0" stroke-width="1.22"/><g clip-path="url(#clip2377924305)"></g></g><g><clipPath id="clip2378188639"><path d="M 1586.0 238.0 L 1592.2 238.0 L 1592.2 244.2 L 1586.0 244.2 Z"/></clipPath><path d="M 1586.0 238.0 L 1592.2 238.0 L 1592.2 244.2 L 1586.0 244.2 Z" fill="#9C948A" fill-opacity="0.2" stroke="#9C948A" stroke-opacity="1.0" stroke-width="2.07"/><g clip-path="url(#clip2378188639)"></g></g><g><clipPath id="clip2383581093"><path d="M 1979.1 313.1 L 1982.1 316.1 Q 1983.1 317.1 1982.1 318.1 L 1979.1 321.1 Q 1978.1 322.1 1977.1 321.1 L 1974.1 318.1 Q 1973.1 317.1 1974.1 316.1 L 1977.1 313.1 Q 1978.1 312.1 1979.1 313.1 Z"/></clipPath><path d="M 1979.1 313.1 L 1982.1 316.1 Q 1983.1 317.1 1982.1 318.1 L 1979.1 321.1 Q 1978.1 322.1 1977.1 321.1 L 1974.1 318.1 Q 1973.1 317.1 1974.1 316.1 L 1977.1 313.1 Q 1978.1 312.1 1979.1 313.1 Z" fill="#3F6B72" fill-opacity="0.36" stroke="#3F6B72" stroke-opacity="1.0" stroke-width="1.37"/><g clip-path="url(#clip2383581093)"></g></g><g><clipPath id="clip2384847070"><path d="M 118.7 192.1 L 125.9 192.1 L 125.9 195.7 L 122.3 195.7 L 122.3 199.3 L 118.7 199.3 Z"/></clipPath><path d="M 118.7 192.1 L 125.9 192.1 L 125.9 195.7 L 122.3 195.7 L 122.3 199.3 L 118.7 199.3 Z" fill="#A8703C" fill-opacity="0.36" stroke="#A8703C" stroke-opacity="1.0" stroke-width="0.99"/><g clip-path="url(#clip2384847070)"></g></g><g><clipPath id="clip2386110534"><path d="M 1974.4 313.4 L 1977.4 316.4 Q 1978.4 317.4 1977.4 318.4 L 1974.4 321.4 Q 1973.4 322.4 1972.4 321.4 L 1969.4 318.4 Q 1968.4 317.4 1969.4 316.4 L 1972.4 313.4 Q 1973.4 312.4 1974.4 313.4 Z"/></clipPath><path d="M 1974.4 313.4 L 1977.4 316.4 Q 1978.4 317.4 1977.4 318.4 L 1974.4 321.4 Q 1973.4 322.4 1972.4 321.4 L 1969.4 318.4 Q 1968.4 317.4 1969.4 316.4 L 1972.4 313.4 Q 1973.4 312.4 1974.4 313.4 Z" fill="#3F6B72" fill-opacity="0.36" stroke="#3F6B72" stroke-opacity="1.0" stroke-width="1.31"/><g clip-path="url(#clip2386110534)"></g></g><g><clipPath id="clip2387304583"><path d="M 168.1 194.9 L 175.3 194.9 L 175.3 198.5 L 171.7 198.5 L 171.7 202.1 L 168.1 202.1 Z"/></clipPath><path d="M 168.1 194.9 L 175.3 194.9 L 175.3 198.5 L 171.7 198.5 L 171.7 202.1 L 168.1 202.1 Z" fill="#A8703C" fill-opacity="0.36" stroke="#A8703C" stroke-opacity="1.0" stroke-width="1.26"/><g clip-path="url(#clip2387304583)"></g></g><g><clipPath id="clip2395105791"><path d="M 132.9 191.1 L 140.1 191.1 L 140.1 194.7 L 136.5 194.7 L 136.5 198.3 L 132.9 198.3 Z"/></clipPath><path d="M 132.9 191.1 L 140.1 191.1 L 140.1 194.7 L 136.5 194.7 L 136.5 198.3 L 132.9 198.3 Z" fill="#A8703C" fill-opacity="0.36" stroke="#A8703C" stroke-opacity="1.0" stroke-width="1.01"/><g clip-path="url(#clip2395105791)"></g></g><g><clipPath id="clip2396142311"><path d="M 1978.2 308.4 L 1981.2 311.4 Q 1982.2 312.4 1981.2 313.4 L 1978.2 316.4 Q 1977.2 317.4 1976.2 316.4 L 1973.2 313.4 Q 1972.2 312.4 1973.2 311.4 L 1976.2 308.4 Q 1977.2 307.4 1978.2 308.4 Z"/></clipPath><path d="M 1978.2 308.4 L 1981.2 311.4 Q 1982.2 312.4 1981.2 313.4 L 1978.2 316.4 Q 1977.2 317.4 1976.2 316.4 L 1973.2 313.4 Q 1972.2 312.4 1973.2 311.4 L 1976.2 308.4 Q 1977.2 307.4 1978.2 308.4 Z" fill="#3F6B72" fill-opacity="0.36" stroke="#3F6B72" stroke-opacity="1.0" stroke-width="1.05"/><g clip-path="url(#clip2396142311)"></g></g><g><clipPath id="clip2398660380"><path d="M 142.9 194.2 L 150.1 194.2 L 150.1 197.8 L 146.5 197.8 L 146.5 201.4 L 142.9 201.4 Z"/></clipPath><path d="M 142.9 194.2 L 150.1 194.2 L 150.1 197.8 L 146.5 197.8 L 146.5 201.4 L 142.9 201.4 Z" fill="#A8703C" fill-opacity="0.36" stroke="#A8703C" stroke-opacity="1.0" stroke-width="1.02"/><g clip-path="url(#clip2398660380)"></g></g><g><clipPath id="clip2415289921"><path d="M 106.4 190.7 L 113.6 190.7 L 113.6 194.3 L 110.0 194.3 L 110.0 197.9 L 106.4 197.9 Z"/></clipPath><path d="M 106.4 190.7 L 113.6 190.7 L 113.6 194.3 L 110.0 194.3 L 110.0 197.9 L 106.4 197.9 Z" fill="#A8703C" fill-opacity="0.36" stroke="#A8703C" stroke-opacity="1.0" stroke-width="1.53"/><g clip-path="url(#clip2415289921)"></g></g></g>
</svg>
